<svg xmlns="http://www.w3.org/2000/svg" width="146" height="146" viewBox="0 0 146 146">
    <g fill="none" fill-rule="evenodd" stroke="#000" stroke-linecap="round">
        <path d="M973 146.417L999.833 119.583M973 119.583L999.833 119.583M999.833 119.583L999.833 146.417M973 106.417L999.833 79.583M973 79.583L999.833 79.583M999.833 79.583L999.833 106.417M1012 146.417L1038.833 119.583M1012 119.583L1038.833 119.583M1038.833 119.583L1038.833 146.417M1012 106.417L1038.833 79.583M1012 79.583L1038.833 79.583M1038.833 79.583L1038.833 106.417M973 66.417L999.833 39.583M973 39.583L999.833 39.583M999.833 39.583L999.833 66.417M1012 66.417L1038.833 39.583M1012 39.583L1038.833 39.583M1038.833 39.583L1038.833 66.417M1051 146.417L1077.833 119.583M1051 119.583L1077.833 119.583M1077.833 119.583L1077.833 146.417M1051 106.417L1077.833 79.583M1051 79.583L1077.833 79.583M1077.833 79.583L1077.833 106.417M1090 106.417L1116.833 79.583M1090 79.583L1116.833 79.583M1116.833 79.583L1116.833 106.417M1051 66.417L1077.833 39.583M1051 39.583L1077.833 39.583M1077.833 39.583L1077.833 66.417M1051 27.417L1077.833.583M1051 .583L1077.833.583M1077.833.583L1077.833 27.417M1090 66.417L1116.833 39.583M1090 39.583L1116.833 39.583M1116.833 39.583L1116.833 66.417 M1090 27.417L1116.833.583M1090 .583L1116.833.583M1116.833 1.583L1116.833 28.417" transform="translate(-972)"/>
    </g>
</svg>
