<svg xmlns="http://www.w3.org/2000/svg" xmlns:xlink="http://www.w3.org/1999/xlink" width="279" height="279" viewBox="0 0 279 279">
    <defs>
        <filter id="d76ixhj6va">
            <feColorMatrix in="SourceGraphic" values="0 0 0 0 0.000000 0 0 0 0 0.898039 0 0 0 0 1.000000 0 0 0 1.000000 0"/>
        </filter>
        <filter id="4zv9rb7gbb">
            <feColorMatrix in="SourceGraphic" values="0 0 0 0 1.000000 0 0 0 0 1.000000 0 0 0 0 1.000000 0 0 0 1.000000 0"/>
        </filter>
        <filter id="xvfsik2mue">
            <feColorMatrix in="SourceGraphic" values="0 0 0 0 1.000000 0 0 0 0 1.000000 0 0 0 0 1.000000 0 0 0 1.000000 0"/>
        </filter>
        <filter id="pbc1m3qymh">
            <feColorMatrix in="SourceGraphic" values="0 0 0 0 1.000000 0 0 0 0 1.000000 0 0 0 0 1.000000 0 0 0 1.000000 0"/>
        </filter>
        <filter id="14h0zrel0k">
            <feColorMatrix in="SourceGraphic" values="0 0 0 0 1.000000 0 0 0 0 1.000000 0 0 0 0 1.000000 0 0 0 1.000000 0"/>
        </filter>
        <filter id="0uac0o3ozn">
            <feColorMatrix in="SourceGraphic" values="0 0 0 0 1.000000 0 0 0 0 1.000000 0 0 0 0 1.000000 0 0 0 1.000000 0"/>
        </filter>
        <filter id="31x8wfyfhq">
            <feColorMatrix in="SourceGraphic" values="0 0 0 0 1.000000 0 0 0 0 1.000000 0 0 0 0 1.000000 0 0 0 1.000000 0"/>
        </filter>
        <filter id="22tavxbiut">
            <feColorMatrix in="SourceGraphic" values="0 0 0 0 1.000000 0 0 0 0 1.000000 0 0 0 0 1.000000 0 0 0 1.000000 0"/>
        </filter>
        <filter id="ciacl9wc8w">
            <feColorMatrix in="SourceGraphic" values="0 0 0 0 1.000000 0 0 0 0 1.000000 0 0 0 0 1.000000 0 0 0 1.000000 0"/>
        </filter>
        <filter id="qo3ds4l1uz">
            <feColorMatrix in="SourceGraphic" values="0 0 0 0 1.000000 0 0 0 0 1.000000 0 0 0 0 1.000000 0 0 0 1.000000 0"/>
        </filter>
        <filter id="f8bdmbamaC">
            <feColorMatrix in="SourceGraphic" values="0 0 0 0 1.000000 0 0 0 0 1.000000 0 0 0 0 1.000000 0 0 0 1.000000 0"/>
        </filter>
        <filter id="3j136ux8xF">
            <feColorMatrix in="SourceGraphic" values="0 0 0 0 1.000000 0 0 0 0 1.000000 0 0 0 0 1.000000 0 0 0 1.000000 0"/>
        </filter>
        <filter id="yssvnrfjwI">
            <feColorMatrix in="SourceGraphic" values="0 0 0 0 1.000000 0 0 0 0 1.000000 0 0 0 0 1.000000 0 0 0 1.000000 0"/>
        </filter>
        <filter id="a7tjlbvjoL">
            <feColorMatrix in="SourceGraphic" values="0 0 0 0 1.000000 0 0 0 0 1.000000 0 0 0 0 1.000000 0 0 0 1.000000 0"/>
        </filter>
        <filter id="axy8g42v5O">
            <feColorMatrix in="SourceGraphic" values="0 0 0 0 1.000000 0 0 0 0 1.000000 0 0 0 0 1.000000 0 0 0 1.000000 0"/>
        </filter>
        <filter id="q11d6pfpqR">
            <feColorMatrix in="SourceGraphic" values="0 0 0 0 1.000000 0 0 0 0 1.000000 0 0 0 0 1.000000 0 0 0 1.000000 0"/>
        </filter>
        <filter id="8y61fm7v0U">
            <feColorMatrix in="SourceGraphic" values="0 0 0 0 1.000000 0 0 0 0 1.000000 0 0 0 0 1.000000 0 0 0 1.000000 0"/>
        </filter>
        <filter id="i860stcilX">
            <feColorMatrix in="SourceGraphic" values="0 0 0 0 1.000000 0 0 0 0 1.000000 0 0 0 0 1.000000 0 0 0 1.000000 0"/>
        </filter>
        <filter id="x9aj7iuekaa">
            <feColorMatrix in="SourceGraphic" values="0 0 0 0 1.000000 0 0 0 0 1.000000 0 0 0 0 1.000000 0 0 0 1.000000 0"/>
        </filter>
        <filter id="dlyy2qdinad">
            <feColorMatrix in="SourceGraphic" values="0 0 0 0 1.000000 0 0 0 0 1.000000 0 0 0 0 1.000000 0 0 0 1.000000 0"/>
        </filter>
        <filter id="2nfg9lem6ag">
            <feColorMatrix in="SourceGraphic" values="0 0 0 0 1.000000 0 0 0 0 1.000000 0 0 0 0 1.000000 0 0 0 1.000000 0"/>
        </filter>
        <filter id="twdwcu9y1aj">
            <feColorMatrix in="SourceGraphic" values="0 0 0 0 1.000000 0 0 0 0 1.000000 0 0 0 0 1.000000 0 0 0 1.000000 0"/>
        </filter>
        <filter id="fd86h3b6kam">
            <feColorMatrix in="SourceGraphic" values="0 0 0 0 1.000000 0 0 0 0 1.000000 0 0 0 0 1.000000 0 0 0 1.000000 0"/>
        </filter>
        <filter id="efrr36nqvap">
            <feColorMatrix in="SourceGraphic" values="0 0 0 0 1.000000 0 0 0 0 1.000000 0 0 0 0 1.000000 0 0 0 1.000000 0"/>
        </filter>
        <filter id="q6s06tm88as">
            <feColorMatrix in="SourceGraphic" values="0 0 0 0 1.000000 0 0 0 0 1.000000 0 0 0 0 1.000000 0 0 0 1.000000 0"/>
        </filter>
        <filter id="czi7r2qfnav">
            <feColorMatrix in="SourceGraphic" values="0 0 0 0 1.000000 0 0 0 0 1.000000 0 0 0 0 1.000000 0 0 0 1.000000 0"/>
        </filter>
        <filter id="x4bg5gr0tay">
            <feColorMatrix in="SourceGraphic" values="0 0 0 0 1.000000 0 0 0 0 1.000000 0 0 0 0 1.000000 0 0 0 1.000000 0"/>
        </filter>
        <filter id="nygjnnxooaB">
            <feColorMatrix in="SourceGraphic" values="0 0 0 0 1.000000 0 0 0 0 1.000000 0 0 0 0 1.000000 0 0 0 1.000000 0"/>
        </filter>
        <filter id="n6f1zhbfiaE">
            <feColorMatrix in="SourceGraphic" values="0 0 0 0 1.000000 0 0 0 0 1.000000 0 0 0 0 1.000000 0 0 0 1.000000 0"/>
        </filter>
        <filter id="bnosmjrshaH">
            <feColorMatrix in="SourceGraphic" values="0 0 0 0 1.000000 0 0 0 0 1.000000 0 0 0 0 1.000000 0 0 0 1.000000 0"/>
        </filter>
        <filter id="8yn8fjgdhaK">
            <feColorMatrix in="SourceGraphic" values="0 0 0 0 1.000000 0 0 0 0 1.000000 0 0 0 0 1.000000 0 0 0 1.000000 0"/>
        </filter>
        <filter id="yx6g81i8oaN">
            <feColorMatrix in="SourceGraphic" values="0 0 0 0 1.000000 0 0 0 0 1.000000 0 0 0 0 1.000000 0 0 0 1.000000 0"/>
        </filter>
        <filter id="l1mx7i522aQ">
            <feColorMatrix in="SourceGraphic" values="0 0 0 0 1.000000 0 0 0 0 1.000000 0 0 0 0 1.000000 0 0 0 1.000000 0"/>
        </filter>
        <filter id="t1syh2l6maT">
            <feColorMatrix in="SourceGraphic" values="0 0 0 0 1.000000 0 0 0 0 1.000000 0 0 0 0 1.000000 0 0 0 1.000000 0"/>
        </filter>
        <filter id="2cro5mw0vaW">
            <feColorMatrix in="SourceGraphic" values="0 0 0 0 1.000000 0 0 0 0 1.000000 0 0 0 0 1.000000 0 0 0 1.000000 0"/>
        </filter>
        <filter id="370rh8irbaZ">
            <feColorMatrix in="SourceGraphic" values="0 0 0 0 1.000000 0 0 0 0 1.000000 0 0 0 0 1.000000 0 0 0 1.000000 0"/>
        </filter>
        <filter id="0chjqt3cubc">
            <feColorMatrix in="SourceGraphic" values="0 0 0 0 1.000000 0 0 0 0 1.000000 0 0 0 0 1.000000 0 0 0 1.000000 0"/>
        </filter>
        <filter id="19tkwu7ckbf">
            <feColorMatrix in="SourceGraphic" values="0 0 0 0 1.000000 0 0 0 0 1.000000 0 0 0 0 1.000000 0 0 0 1.000000 0"/>
        </filter>
        <filter id="e95asqisubi">
            <feColorMatrix in="SourceGraphic" values="0 0 0 0 1.000000 0 0 0 0 1.000000 0 0 0 0 1.000000 0 0 0 1.000000 0"/>
        </filter>
        <filter id="5jf35yd5fbl">
            <feColorMatrix in="SourceGraphic" values="0 0 0 0 1.000000 0 0 0 0 1.000000 0 0 0 0 1.000000 0 0 0 1.000000 0"/>
        </filter>
        <filter id="g3mv39s2sbo">
            <feColorMatrix in="SourceGraphic" values="0 0 0 0 1.000000 0 0 0 0 1.000000 0 0 0 0 1.000000 0 0 0 1.000000 0"/>
        </filter>
        <filter id="5lmw4u5uvbr">
            <feColorMatrix in="SourceGraphic" values="0 0 0 0 1.000000 0 0 0 0 1.000000 0 0 0 0 1.000000 0 0 0 1.000000 0"/>
        </filter>
        <filter id="q6n9s5ro8bu">
            <feColorMatrix in="SourceGraphic" values="0 0 0 0 1.000000 0 0 0 0 1.000000 0 0 0 0 1.000000 0 0 0 1.000000 0"/>
        </filter>
        <filter id="rbc5z41yrbx">
            <feColorMatrix in="SourceGraphic" values="0 0 0 0 1.000000 0 0 0 0 1.000000 0 0 0 0 1.000000 0 0 0 1.000000 0"/>
        </filter>
        <filter id="2cxahv7w7bA">
            <feColorMatrix in="SourceGraphic" values="0 0 0 0 1.000000 0 0 0 0 1.000000 0 0 0 0 1.000000 0 0 0 1.000000 0"/>
        </filter>
        <filter id="l6puqnntrbD">
            <feColorMatrix in="SourceGraphic" values="0 0 0 0 1.000000 0 0 0 0 1.000000 0 0 0 0 1.000000 0 0 0 1.000000 0"/>
        </filter>
        <filter id="ipjvgs5zdbG">
            <feColorMatrix in="SourceGraphic" values="0 0 0 0 1.000000 0 0 0 0 1.000000 0 0 0 0 1.000000 0 0 0 1.000000 0"/>
        </filter>
        <filter id="z91gpslvbbJ">
            <feColorMatrix in="SourceGraphic" values="0 0 0 0 1.000000 0 0 0 0 1.000000 0 0 0 0 1.000000 0 0 0 1.000000 0"/>
        </filter>
        <filter id="t3ix19152bM">
            <feColorMatrix in="SourceGraphic" values="0 0 0 0 1.000000 0 0 0 0 1.000000 0 0 0 0 1.000000 0 0 0 1.000000 0"/>
        </filter>
        <filter id="5rlns25qgbP">
            <feColorMatrix in="SourceGraphic" values="0 0 0 0 1.000000 0 0 0 0 1.000000 0 0 0 0 1.000000 0 0 0 1.000000 0"/>
        </filter>
        <filter id="mavhp2wscbS">
            <feColorMatrix in="SourceGraphic" values="0 0 0 0 1.000000 0 0 0 0 1.000000 0 0 0 0 1.000000 0 0 0 1.000000 0"/>
        </filter>
        <filter id="r5d2eqfogbV">
            <feColorMatrix in="SourceGraphic" values="0 0 0 0 1.000000 0 0 0 0 1.000000 0 0 0 0 1.000000 0 0 0 1.000000 0"/>
        </filter>
        <filter id="cfu0yp73dbY">
            <feColorMatrix in="SourceGraphic" values="0 0 0 0 1.000000 0 0 0 0 1.000000 0 0 0 0 1.000000 0 0 0 1.000000 0"/>
        </filter>
        <filter id="wrbsq6mbhcb">
            <feColorMatrix in="SourceGraphic" values="0 0 0 0 1.000000 0 0 0 0 1.000000 0 0 0 0 1.000000 0 0 0 1.000000 0"/>
        </filter>
        <filter id="phk4bslm3ce">
            <feColorMatrix in="SourceGraphic" values="0 0 0 0 1.000000 0 0 0 0 1.000000 0 0 0 0 1.000000 0 0 0 1.000000 0"/>
        </filter>
        <filter id="hdm5wm4wvch">
            <feColorMatrix in="SourceGraphic" values="0 0 0 0 1.000000 0 0 0 0 1.000000 0 0 0 0 1.000000 0 0 0 1.000000 0"/>
        </filter>
        <filter id="9i2ei9fl6ck">
            <feColorMatrix in="SourceGraphic" values="0 0 0 0 1.000000 0 0 0 0 1.000000 0 0 0 0 1.000000 0 0 0 1.000000 0"/>
        </filter>
        <filter id="ddtwj0ov6cn">
            <feColorMatrix in="SourceGraphic" values="0 0 0 0 1.000000 0 0 0 0 1.000000 0 0 0 0 1.000000 0 0 0 1.000000 0"/>
        </filter>
        <filter id="d68ydu82xcq">
            <feColorMatrix in="SourceGraphic" values="0 0 0 0 1.000000 0 0 0 0 1.000000 0 0 0 0 1.000000 0 0 0 1.000000 0"/>
        </filter>
        <filter id="vdt334lasct">
            <feColorMatrix in="SourceGraphic" values="0 0 0 0 1.000000 0 0 0 0 1.000000 0 0 0 0 1.000000 0 0 0 1.000000 0"/>
        </filter>
        <filter id="8iqhevhoocw">
            <feColorMatrix in="SourceGraphic" values="0 0 0 0 1.000000 0 0 0 0 1.000000 0 0 0 0 1.000000 0 0 0 1.000000 0"/>
        </filter>
        <filter id="hqefanijpcz">
            <feColorMatrix in="SourceGraphic" values="0 0 0 0 1.000000 0 0 0 0 1.000000 0 0 0 0 1.000000 0 0 0 1.000000 0"/>
        </filter>
        <filter id="1sn6zpw0ocC">
            <feColorMatrix in="SourceGraphic" values="0 0 0 0 1.000000 0 0 0 0 1.000000 0 0 0 0 1.000000 0 0 0 1.000000 0"/>
        </filter>
        <filter id="ypq5fi3krcF">
            <feColorMatrix in="SourceGraphic" values="0 0 0 0 1.000000 0 0 0 0 1.000000 0 0 0 0 1.000000 0 0 0 1.000000 0"/>
        </filter>
        <filter id="yftanvsu1cI">
            <feColorMatrix in="SourceGraphic" values="0 0 0 0 1.000000 0 0 0 0 1.000000 0 0 0 0 1.000000 0 0 0 1.000000 0"/>
        </filter>
        <filter id="vqlr7c9nrcL">
            <feColorMatrix in="SourceGraphic" values="0 0 0 0 1.000000 0 0 0 0 1.000000 0 0 0 0 1.000000 0 0 0 1.000000 0"/>
        </filter>
        <filter id="6h4p0wkbrcO">
            <feColorMatrix in="SourceGraphic" values="0 0 0 0 1.000000 0 0 0 0 1.000000 0 0 0 0 1.000000 0 0 0 1.000000 0"/>
        </filter>
        <filter id="3q5t1ifpxcR">
            <feColorMatrix in="SourceGraphic" values="0 0 0 0 1.000000 0 0 0 0 1.000000 0 0 0 0 1.000000 0 0 0 1.000000 0"/>
        </filter>
        <filter id="0h5am2dj0cU">
            <feColorMatrix in="SourceGraphic" values="0 0 0 0 1.000000 0 0 0 0 1.000000 0 0 0 0 1.000000 0 0 0 1.000000 0"/>
        </filter>
        <filter id="idex80x5ycX">
            <feColorMatrix in="SourceGraphic" values="0 0 0 0 1.000000 0 0 0 0 1.000000 0 0 0 0 1.000000 0 0 0 1.000000 0"/>
        </filter>
        <filter id="rspaa194yda">
            <feColorMatrix in="SourceGraphic" values="0 0 0 0 1.000000 0 0 0 0 1.000000 0 0 0 0 1.000000 0 0 0 1.000000 0"/>
        </filter>
        <filter id="1ua1xfmg0dd">
            <feColorMatrix in="SourceGraphic" values="0 0 0 0 1.000000 0 0 0 0 1.000000 0 0 0 0 1.000000 0 0 0 1.000000 0"/>
        </filter>
        <filter id="y4yvynqcfdg">
            <feColorMatrix in="SourceGraphic" values="0 0 0 0 1.000000 0 0 0 0 1.000000 0 0 0 0 1.000000 0 0 0 1.000000 0"/>
        </filter>
        <filter id="ac8kpt6mydj">
            <feColorMatrix in="SourceGraphic" values="0 0 0 0 1.000000 0 0 0 0 1.000000 0 0 0 0 1.000000 0 0 0 1.000000 0"/>
        </filter>
        <filter id="on7liq1b1dm">
            <feColorMatrix in="SourceGraphic" values="0 0 0 0 1.000000 0 0 0 0 1.000000 0 0 0 0 1.000000 0 0 0 1.000000 0"/>
        </filter>
        <filter id="pxsvbu605dp">
            <feColorMatrix in="SourceGraphic" values="0 0 0 0 1.000000 0 0 0 0 1.000000 0 0 0 0 1.000000 0 0 0 1.000000 0"/>
        </filter>
        <filter id="l0kho5le5ds">
            <feColorMatrix in="SourceGraphic" values="0 0 0 0 1.000000 0 0 0 0 1.000000 0 0 0 0 1.000000 0 0 0 1.000000 0"/>
        </filter>
        <filter id="x1f5bshbudv">
            <feColorMatrix in="SourceGraphic" values="0 0 0 0 1.000000 0 0 0 0 1.000000 0 0 0 0 1.000000 0 0 0 1.000000 0"/>
        </filter>
        <filter id="b3fgn8d8qdy">
            <feColorMatrix in="SourceGraphic" values="0 0 0 0 1.000000 0 0 0 0 1.000000 0 0 0 0 1.000000 0 0 0 1.000000 0"/>
        </filter>
        <filter id="wf7mu1sggdB">
            <feColorMatrix in="SourceGraphic" values="0 0 0 0 1.000000 0 0 0 0 1.000000 0 0 0 0 1.000000 0 0 0 1.000000 0"/>
        </filter>
        <filter id="f2g5hkrdmdE">
            <feColorMatrix in="SourceGraphic" values="0 0 0 0 1.000000 0 0 0 0 1.000000 0 0 0 0 1.000000 0 0 0 1.000000 0"/>
        </filter>
        <path id="j9j155mcvc" d="M0 0H23V23H0z"/>
        <path id="3xl6p9416f" d="M0 0H23V23H0z"/>
        <path id="2fnzfso75i" d="M0 0H23V23H0z"/>
        <path id="2ww35rfbhl" d="M0 0H23V23H0z"/>
        <path id="x4ujo8jwko" d="M0 0H23V23H0z"/>
        <path id="96q4rwm2dr" d="M0 0H23V23H0z"/>
        <path id="5u0zkac72u" d="M0 0H23V23H0z"/>
        <path id="1kx9z2hxex" d="M0 0H23V23H0z"/>
        <path id="adgwg3qavA" d="M0 0H23V23H0z"/>
        <path id="cpbqklv18D" d="M0 0H23V23H0z"/>
        <path id="g1n8vxh7mG" d="M0 0H23V23H0z"/>
        <path id="u0u37rpsjJ" d="M0 0H23V23H0z"/>
        <path id="gj8avng4yM" d="M0 0H23V23H0z"/>
        <path id="1ue0qwqbwP" d="M0 0H23V23H0z"/>
        <path id="ph1ntyv59S" d="M0 0H23V23H0z"/>
        <path id="7ok7o1hv6V" d="M0 0H23V23H0z"/>
        <path id="55jkhjlblY" d="M0 0H23V23H0z"/>
        <path id="f7d4qx7i6ab" d="M0 0H23V23H0z"/>
        <path id="1o2ini6g6ae" d="M0 0H23V23H0z"/>
        <path id="bx7phtrunah" d="M0 0H23V23H0z"/>
        <path id="yu105blhrak" d="M0 0H23V23H0z"/>
        <path id="4jkr2u1aqan" d="M0 0H23V23H0z"/>
        <path id="wt7726y9waq" d="M0 0H23V23H0z"/>
        <path id="ng3rlyklbat" d="M0 0H23V23H0z"/>
        <path id="ipduv7wj6aw" d="M0 0H23V23H0z"/>
        <path id="lbyvokckfaz" d="M0 0H23V23H0z"/>
        <path id="0orvpc34xaC" d="M0 0H23V23H0z"/>
        <path id="cpcac95uyaF" d="M0 0H23V23H0z"/>
        <path id="sa0hbqgdiaI" d="M0 0H23V23H0z"/>
        <path id="jku34zsdxaL" d="M0 0H23V23H0z"/>
        <path id="4ik7wsi3eaO" d="M0 0H23V23H0z"/>
        <path id="fw4o6a0c0aR" d="M0 0H23V23H0z"/>
        <path id="9idc080zpaU" d="M0 0H23V23H0z"/>
        <path id="om2zkr18yaX" d="M0 0H23V23H0z"/>
        <path id="00hhiv2ipba" d="M0 0H23V23H0z"/>
        <path id="k22yom5ecbd" d="M0 0H23V23H0z"/>
        <path id="ppccbbnskbg" d="M0 0H23V23H0z"/>
        <path id="rx6n32mq0bj" d="M0 0H23V23H0z"/>
        <path id="5ase0zhxdbm" d="M0 0H23V23H0z"/>
        <path id="xrr59hhxrbp" d="M0 0H23V23H0z"/>
        <path id="ryw9d7f77bs" d="M0 0H23V23H0z"/>
        <path id="9375gslf1bv" d="M0 0H23V23H0z"/>
        <path id="eaf568e7cby" d="M0 0H23V23H0z"/>
        <path id="ekv7kjhe3bB" d="M0 0H23V23H0z"/>
        <path id="s17wzevmdbE" d="M0 0H23V23H0z"/>
        <path id="87ew3hn1tbH" d="M0 0H23V23H0z"/>
        <path id="somgi4029bK" d="M0 0H23V23H0z"/>
        <path id="k2scsvv5wbN" d="M0 0H23V23H0z"/>
        <path id="z2t8h0eodbQ" d="M0 0H23V23H0z"/>
        <path id="lt1mpi2ipbT" d="M0 0H23V23H0z"/>
        <path id="4u9r7ndmpbW" d="M0 0H23V23H0z"/>
        <path id="1om66r7wtbZ" d="M0 0H23V23H0z"/>
        <path id="d7eafi2qycc" d="M0 0H23V23H0z"/>
        <path id="ijz62jfgscf" d="M0 0H23V23H0z"/>
        <path id="3r735xykoci" d="M0 0H23V23H0z"/>
        <path id="m1xubh2zccl" d="M0 0H23V23H0z"/>
        <path id="pwg2mmsetco" d="M0 0H23V23H0z"/>
        <path id="94chlgw1fcr" d="M0 0H23V23H0z"/>
        <path id="oqakrkka4cu" d="M0 0H23V23H0z"/>
        <path id="1e9v07unccx" d="M0 0H23V23H0z"/>
        <path id="fa9hw31uacA" d="M0 0H23V23H0z"/>
        <path id="5w80uvykbcD" d="M0 0H23V23H0z"/>
        <path id="m27chu7stcG" d="M0 0H23V23H0z"/>
        <path id="pvhtrkl27cJ" d="M0 0H23V23H0z"/>
        <path id="db554vsn2cM" d="M0 0H23V23H0z"/>
        <path id="geu7xf3b1cP" d="M0 0H23V23H0z"/>
        <path id="ksqcau3ohcS" d="M0 0H23V23H0z"/>
        <path id="ss230ep0xcV" d="M0 0H23V23H0z"/>
        <path id="rpebqv2cdcY" d="M0 0H23V23H0z"/>
        <path id="xnmsmaoeddb" d="M0 0H23V23H0z"/>
        <path id="66o5vul0cde" d="M0 0H23V23H0z"/>
        <path id="ttzfq9uojdh" d="M0 0H23V23H0z"/>
        <path id="s2gmu583pdk" d="M0 0H23V23H0z"/>
        <path id="folbr0utcdn" d="M0 0H23V23H0z"/>
        <path id="t81xi75f5dq" d="M0 0H23V23H0z"/>
        <path id="cf5vw1qqpdt" d="M0 0H23V23H0z"/>
        <path id="akr39dzrpdw" d="M0 0H23V23H0z"/>
        <path id="9y912a9dtdz" d="M0 0H23V23H0z"/>
        <path id="htvji6l7ddC" d="M0 0H23V23H0z"/>
        <path id="vqxqrhulwdF" d="M0 0H23V23H0z"/>
    </defs>
    <g fill="none" fill-rule="evenodd" filter="url(#d76ixhj6va)">
        <g filter="url(#4zv9rb7gbb)">
            <g transform="translate(93.5 117)">
                <mask id="ct8bs6e4gd" fill="#fff">
                    <use xlink:href="#j9j155mcvc"/>
                </mask>
                <path fill="#000C0A" fill-rule="nonzero" d="M19.164 5.667v-.038c-.001-.1-.011-.198-.03-.295-.013-.054-.029-.106-.047-.158-.014-.055-.03-.108-.05-.16-.026-.059-.056-.115-.089-.17-.023-.041-.04-.084-.067-.124-.125-.187-.285-.348-.472-.472-.043-.029-.09-.049-.134-.073-.052-.03-.105-.059-.159-.084-.059-.021-.119-.04-.18-.055-.046-.014-.09-.032-.138-.042-.111-.021-.224-.033-.337-.033H5.537c-.941 0-1.704.762-1.704 1.703 0 .94.763 1.704 1.704 1.704h7.813l-8.995 8.992c-.665.665-.666 1.744 0 2.41.665.665 1.744.665 2.41 0l8.995-8.993v7.814c0 .452.18.885.499 1.204.32.32.753.5 1.205.5.451 0 .885-.18 1.204-.5.32-.319.499-.752.499-1.204V5.667h-.003z" mask="url(#ct8bs6e4gd)"/>
            </g>
        </g>
        <g filter="url(#xvfsik2mue)">
            <g transform="translate(69.5 117)">
                <mask id="uzmdkubczg" fill="#fff">
                    <use xlink:href="#3xl6p9416f"/>
                </mask>
                <path fill="#000C0A" fill-rule="nonzero" d="M19.164 5.667v-.038c-.001-.1-.011-.198-.03-.295-.013-.054-.029-.106-.047-.158-.014-.055-.03-.108-.05-.16-.026-.059-.056-.115-.089-.17-.023-.041-.04-.084-.067-.124-.125-.187-.285-.348-.472-.472-.043-.029-.09-.049-.134-.073-.052-.03-.105-.059-.159-.084-.059-.021-.119-.04-.18-.055-.046-.014-.09-.032-.138-.042-.111-.021-.224-.033-.337-.033H5.537c-.941 0-1.704.762-1.704 1.703 0 .94.763 1.704 1.704 1.704h7.813l-8.995 8.992c-.665.665-.666 1.744 0 2.41.665.665 1.744.665 2.41 0l8.995-8.993v7.814c0 .452.18.885.499 1.204.32.32.753.5 1.205.5.451 0 .885-.18 1.204-.5.32-.319.499-.752.499-1.204V5.667h-.003z" mask="url(#uzmdkubczg)"/>
            </g>
        </g>
        <g filter="url(#pbc1m3qymh)">
            <g transform="translate(46.5 117)">
                <mask id="8iz48gnjqj" fill="#fff">
                    <use xlink:href="#2fnzfso75i"/>
                </mask>
                <path fill="#000C0A" fill-rule="nonzero" d="M19.164 5.667v-.038c-.001-.1-.011-.198-.03-.295-.013-.054-.029-.106-.047-.158-.014-.055-.03-.108-.05-.16-.026-.059-.056-.115-.089-.17-.023-.041-.04-.084-.067-.124-.125-.187-.285-.348-.472-.472-.043-.029-.09-.049-.134-.073-.052-.03-.105-.059-.159-.084-.059-.021-.119-.04-.18-.055-.046-.014-.09-.032-.138-.042-.111-.021-.224-.033-.337-.033H5.537c-.941 0-1.704.762-1.704 1.703 0 .94.763 1.704 1.704 1.704h7.813l-8.995 8.992c-.665.665-.666 1.744 0 2.41.665.665 1.744.665 2.41 0l8.995-8.993v7.814c0 .452.18.885.499 1.204.32.32.753.5 1.205.5.451 0 .885-.18 1.204-.5.32-.319.499-.752.499-1.204V5.667h-.003z" mask="url(#8iz48gnjqj)"/>
            </g>
        </g>
        <g filter="url(#14h0zrel0k)">
            <g transform="translate(93.5 70)">
                <mask id="ocakuoni6m" fill="#fff">
                    <use xlink:href="#2ww35rfbhl"/>
                </mask>
                <path fill="#000C0A" fill-rule="nonzero" d="M19.164 5.667v-.038c-.001-.1-.011-.198-.03-.295-.013-.054-.029-.106-.047-.158-.014-.055-.03-.108-.05-.16-.026-.059-.056-.115-.089-.17-.023-.041-.04-.084-.067-.124-.125-.187-.285-.348-.472-.472-.043-.029-.09-.049-.134-.073-.052-.03-.105-.059-.159-.084-.059-.021-.119-.04-.18-.055-.046-.014-.09-.032-.138-.042-.111-.021-.224-.033-.337-.033H5.537c-.941 0-1.704.762-1.704 1.703 0 .94.763 1.704 1.704 1.704h7.813l-8.995 8.992c-.665.665-.666 1.744 0 2.41.665.665 1.744.665 2.41 0l8.995-8.993v7.814c0 .452.18.885.499 1.204.32.32.753.5 1.205.5.451 0 .885-.18 1.204-.5.32-.319.499-.752.499-1.204V5.667h-.003z" mask="url(#ocakuoni6m)"/>
            </g>
        </g>
        <g filter="url(#0uac0o3ozn)">
            <g transform="translate(93.5 93)">
                <mask id="vxmngf6v1p" fill="#fff">
                    <use xlink:href="#x4ujo8jwko"/>
                </mask>
                <path fill="#000C0A" fill-rule="nonzero" d="M19.164 5.667v-.038c-.001-.1-.011-.198-.03-.295-.013-.054-.029-.106-.047-.158-.014-.055-.03-.108-.05-.16-.026-.059-.056-.115-.089-.17-.023-.041-.04-.084-.067-.124-.125-.187-.285-.348-.472-.472-.043-.029-.09-.049-.134-.073-.052-.03-.105-.059-.159-.084-.059-.021-.119-.04-.18-.055-.046-.014-.09-.032-.138-.042-.111-.021-.224-.033-.337-.033H5.537c-.941 0-1.704.762-1.704 1.703 0 .94.763 1.704 1.704 1.704h7.813l-8.995 8.992c-.665.665-.666 1.744 0 2.41.665.665 1.744.665 2.41 0l8.995-8.993v7.814c0 .452.18.885.499 1.204.32.32.753.5 1.205.5.451 0 .885-.18 1.204-.5.32-.319.499-.752.499-1.204V5.667h-.003z" mask="url(#vxmngf6v1p)"/>
            </g>
        </g>
        <g filter="url(#31x8wfyfhq)">
            <g transform="translate(93.5 46)">
                <mask id="x0wvm7j6bs" fill="#fff">
                    <use xlink:href="#96q4rwm2dr"/>
                </mask>
                <path fill="#000C0A" fill-rule="nonzero" d="M19.164 5.667v-.038c-.001-.1-.011-.198-.03-.295-.013-.054-.029-.106-.047-.158-.014-.055-.03-.108-.05-.16-.026-.059-.056-.115-.089-.17-.023-.041-.04-.084-.067-.124-.125-.187-.285-.348-.472-.472-.043-.029-.09-.049-.134-.073-.052-.03-.105-.059-.159-.084-.059-.021-.119-.04-.18-.055-.046-.014-.09-.032-.138-.042-.111-.021-.224-.033-.337-.033H5.537c-.941 0-1.704.762-1.704 1.703 0 .94.763 1.704 1.704 1.704h7.813l-8.995 8.992c-.665.665-.666 1.744 0 2.41.665.665 1.744.665 2.41 0l8.995-8.993v7.814c0 .452.18.885.499 1.204.32.32.753.5 1.205.5.451 0 .885-.18 1.204-.5.32-.319.499-.752.499-1.204V5.667h-.003z" mask="url(#x0wvm7j6bs)"/>
            </g>
        </g>
        <g filter="url(#22tavxbiut)">
            <g transform="translate(93.5 256)">
                <mask id="j1r3icqwiv" fill="#fff">
                    <use xlink:href="#5u0zkac72u"/>
                </mask>
                <path fill="#000C0A" fill-rule="nonzero" d="M19.164 5.667v-.038c-.001-.1-.011-.198-.03-.295-.013-.054-.029-.106-.047-.158-.014-.055-.03-.108-.05-.16-.026-.059-.056-.115-.089-.17-.023-.041-.04-.084-.067-.124-.125-.187-.285-.348-.472-.472-.043-.029-.09-.049-.134-.073-.052-.03-.105-.059-.159-.084-.059-.021-.119-.04-.18-.055-.046-.014-.09-.032-.138-.042-.111-.021-.224-.033-.337-.033H5.537c-.941 0-1.704.762-1.704 1.703 0 .94.763 1.704 1.704 1.704h7.813l-8.995 8.992c-.665.665-.666 1.744 0 2.41.665.665 1.744.665 2.41 0l8.995-8.993v7.814c0 .452.18.885.499 1.204.32.32.753.5 1.205.5.451 0 .885-.18 1.204-.5.32-.319.499-.752.499-1.204V5.667h-.003z" mask="url(#j1r3icqwiv)"/>
            </g>
        </g>
        <g filter="url(#ciacl9wc8w)">
            <g transform="translate(69.5 46)">
                <mask id="csdlydj8oy" fill="#fff">
                    <use xlink:href="#1kx9z2hxex"/>
                </mask>
                <path fill="#000C0A" fill-rule="nonzero" d="M19.164 5.667v-.038c-.001-.1-.011-.198-.03-.295-.013-.054-.029-.106-.047-.158-.014-.055-.03-.108-.05-.16-.026-.059-.056-.115-.089-.17-.023-.041-.04-.084-.067-.124-.125-.187-.285-.348-.472-.472-.043-.029-.09-.049-.134-.073-.052-.03-.105-.059-.159-.084-.059-.021-.119-.04-.18-.055-.046-.014-.09-.032-.138-.042-.111-.021-.224-.033-.337-.033H5.537c-.941 0-1.704.762-1.704 1.703 0 .94.763 1.704 1.704 1.704h7.813l-8.995 8.992c-.665.665-.666 1.744 0 2.41.665.665 1.744.665 2.41 0l8.995-8.993v7.814c0 .452.18.885.499 1.204.32.32.753.5 1.205.5.451 0 .885-.18 1.204-.5.32-.319.499-.752.499-1.204V5.667h-.003z" mask="url(#csdlydj8oy)"/>
            </g>
        </g>
        <g filter="url(#qo3ds4l1uz)">
            <g transform="translate(69.5 256)">
                <mask id="ie4qy6ty0B" fill="#fff">
                    <use xlink:href="#adgwg3qavA"/>
                </mask>
                <path fill="#000C0A" fill-rule="nonzero" d="M19.164 5.667v-.038c-.001-.1-.011-.198-.03-.295-.013-.054-.029-.106-.047-.158-.014-.055-.03-.108-.05-.16-.026-.059-.056-.115-.089-.17-.023-.041-.04-.084-.067-.124-.125-.187-.285-.348-.472-.472-.043-.029-.09-.049-.134-.073-.052-.03-.105-.059-.159-.084-.059-.021-.119-.04-.18-.055-.046-.014-.09-.032-.138-.042-.111-.021-.224-.033-.337-.033H5.537c-.941 0-1.704.762-1.704 1.703 0 .94.763 1.704 1.704 1.704h7.813l-8.995 8.992c-.665.665-.666 1.744 0 2.41.665.665 1.744.665 2.41 0l8.995-8.993v7.814c0 .452.18.885.499 1.204.32.32.753.5 1.205.5.451 0 .885-.18 1.204-.5.32-.319.499-.752.499-1.204V5.667h-.003z" mask="url(#ie4qy6ty0B)"/>
            </g>
        </g>
        <g filter="url(#f8bdmbamaC)">
            <g transform="translate(46.5 46)">
                <mask id="sonqeiotsE" fill="#fff">
                    <use xlink:href="#cpbqklv18D"/>
                </mask>
                <path fill="#000C0A" fill-rule="nonzero" d="M19.164 5.667v-.038c-.001-.1-.011-.198-.03-.295-.013-.054-.029-.106-.047-.158-.014-.055-.03-.108-.05-.16-.026-.059-.056-.115-.089-.17-.023-.041-.04-.084-.067-.124-.125-.187-.285-.348-.472-.472-.043-.029-.09-.049-.134-.073-.052-.03-.105-.059-.159-.084-.059-.021-.119-.04-.18-.055-.046-.014-.09-.032-.138-.042-.111-.021-.224-.033-.337-.033H5.537c-.941 0-1.704.762-1.704 1.703 0 .94.763 1.704 1.704 1.704h7.813l-8.995 8.992c-.665.665-.666 1.744 0 2.41.665.665 1.744.665 2.41 0l8.995-8.993v7.814c0 .452.18.885.499 1.204.32.32.753.5 1.205.5.451 0 .885-.18 1.204-.5.32-.319.499-.752.499-1.204V5.667h-.003z" mask="url(#sonqeiotsE)"/>
            </g>
        </g>
        <g filter="url(#3j136ux8xF)">
            <g transform="translate(46.5 256)">
                <mask id="i5gj5uzrdH" fill="#fff">
                    <use xlink:href="#g1n8vxh7mG"/>
                </mask>
                <path fill="#000C0A" fill-rule="nonzero" d="M19.164 5.667v-.038c-.001-.1-.011-.198-.03-.295-.013-.054-.029-.106-.047-.158-.014-.055-.03-.108-.05-.16-.026-.059-.056-.115-.089-.17-.023-.041-.04-.084-.067-.124-.125-.187-.285-.348-.472-.472-.043-.029-.09-.049-.134-.073-.052-.03-.105-.059-.159-.084-.059-.021-.119-.04-.18-.055-.046-.014-.09-.032-.138-.042-.111-.021-.224-.033-.337-.033H5.537c-.941 0-1.704.762-1.704 1.703 0 .94.763 1.704 1.704 1.704h7.813l-8.995 8.992c-.665.665-.666 1.744 0 2.41.665.665 1.744.665 2.41 0l8.995-8.993v7.814c0 .452.18.885.499 1.204.32.32.753.5 1.205.5.451 0 .885-.18 1.204-.5.32-.319.499-.752.499-1.204V5.667h-.003z" mask="url(#i5gj5uzrdH)"/>
            </g>
        </g>
        <g filter="url(#yssvnrfjwI)">
            <g transform="translate(23.5 256)">
                <mask id="6ae5xqnt4K" fill="#fff">
                    <use xlink:href="#u0u37rpsjJ"/>
                </mask>
                <path fill="#000C0A" fill-rule="nonzero" d="M19.164 5.667v-.038c-.001-.1-.011-.198-.03-.295-.013-.054-.029-.106-.047-.158-.014-.055-.03-.108-.05-.16-.026-.059-.056-.115-.089-.17-.023-.041-.04-.084-.067-.124-.125-.187-.285-.348-.472-.472-.043-.029-.09-.049-.134-.073-.052-.03-.105-.059-.159-.084-.059-.021-.119-.04-.18-.055-.046-.014-.09-.032-.138-.042-.111-.021-.224-.033-.337-.033H5.537c-.941 0-1.704.762-1.704 1.703 0 .94.763 1.704 1.704 1.704h7.813l-8.995 8.992c-.665.665-.666 1.744 0 2.41.665.665 1.744.665 2.41 0l8.995-8.993v7.814c0 .452.18.885.499 1.204.32.32.753.5 1.205.5.451 0 .885-.18 1.204-.5.32-.319.499-.752.499-1.204V5.667h-.003z" mask="url(#6ae5xqnt4K)"/>
            </g>
        </g>
        <g filter="url(#a7tjlbvjoL)">
            <g transform="translate(.5 256)">
                <mask id="rs55bxy15N" fill="#fff">
                    <use xlink:href="#gj8avng4yM"/>
                </mask>
                <path fill="#000C0A" fill-rule="nonzero" d="M19.164 5.667v-.038c-.001-.1-.011-.198-.03-.295-.013-.054-.029-.106-.047-.158-.014-.055-.03-.108-.05-.16-.026-.059-.056-.115-.089-.17-.023-.041-.04-.084-.067-.124-.125-.187-.285-.348-.472-.472-.043-.029-.09-.049-.134-.073-.052-.03-.105-.059-.159-.084-.059-.021-.119-.04-.18-.055-.046-.014-.09-.032-.138-.042-.111-.021-.224-.033-.337-.033H5.537c-.941 0-1.704.762-1.704 1.703 0 .94.763 1.704 1.704 1.704h7.813l-8.995 8.992c-.665.665-.666 1.744 0 2.41.665.665 1.744.665 2.41 0l8.995-8.993v7.814c0 .452.18.885.499 1.204.32.32.753.5 1.205.5.451 0 .885-.18 1.204-.5.32-.319.499-.752.499-1.204V5.667h-.003z" mask="url(#rs55bxy15N)"/>
            </g>
        </g>
        <g filter="url(#axy8g42v5O)">
            <g transform="translate(139.5 117)">
                <mask id="r4jhxslxtQ" fill="#fff">
                    <use xlink:href="#1ue0qwqbwP"/>
                </mask>
                <path fill="#000C0A" fill-rule="nonzero" d="M19.164 5.667v-.038c-.001-.1-.011-.198-.03-.295-.013-.054-.029-.106-.047-.158-.014-.055-.03-.108-.05-.16-.026-.059-.056-.115-.089-.17-.023-.041-.04-.084-.067-.124-.125-.187-.285-.348-.472-.472-.043-.029-.09-.049-.134-.073-.052-.03-.105-.059-.159-.084-.059-.021-.119-.04-.18-.055-.046-.014-.09-.032-.138-.042-.111-.021-.224-.033-.337-.033H5.537c-.941 0-1.704.762-1.704 1.703 0 .94.763 1.704 1.704 1.704h7.813l-8.995 8.992c-.665.665-.666 1.744 0 2.41.665.665 1.744.665 2.41 0l8.995-8.993v7.814c0 .452.18.885.499 1.204.32.32.753.5 1.205.5.451 0 .885-.18 1.204-.5.32-.319.499-.752.499-1.204V5.667h-.003z" mask="url(#r4jhxslxtQ)"/>
            </g>
        </g>
        <g filter="url(#q11d6pfpqR)">
            <g transform="translate(139.5 139)">
                <mask id="0tt8duoz1T" fill="#fff">
                    <use xlink:href="#ph1ntyv59S"/>
                </mask>
                <path fill="#000C0A" fill-rule="nonzero" d="M19.164 5.667v-.038c-.001-.1-.011-.198-.03-.295-.013-.054-.029-.106-.047-.158-.014-.055-.03-.108-.05-.16-.026-.059-.056-.115-.089-.17-.023-.041-.04-.084-.067-.124-.125-.187-.285-.348-.472-.472-.043-.029-.09-.049-.134-.073-.052-.03-.105-.059-.159-.084-.059-.021-.119-.04-.18-.055-.046-.014-.09-.032-.138-.042-.111-.021-.224-.033-.337-.033H5.537c-.941 0-1.704.762-1.704 1.703 0 .94.763 1.704 1.704 1.704h7.813l-8.995 8.992c-.665.665-.666 1.744 0 2.41.665.665 1.744.665 2.41 0l8.995-8.993v7.814c0 .452.18.885.499 1.204.32.32.753.5 1.205.5.451 0 .885-.18 1.204-.5.32-.319.499-.752.499-1.204V5.667h-.003z" mask="url(#0tt8duoz1T)"/>
            </g>
        </g>
        <g filter="url(#8y61fm7v0U)">
            <g transform="translate(162.5 139)">
                <mask id="yx2sp0b3dW" fill="#fff">
                    <use xlink:href="#7ok7o1hv6V"/>
                </mask>
                <path fill="#000C0A" fill-rule="nonzero" d="M19.164 5.667v-.038c-.001-.1-.011-.198-.03-.295-.013-.054-.029-.106-.047-.158-.014-.055-.03-.108-.05-.16-.026-.059-.056-.115-.089-.17-.023-.041-.04-.084-.067-.124-.125-.187-.285-.348-.472-.472-.043-.029-.09-.049-.134-.073-.052-.03-.105-.059-.159-.084-.059-.021-.119-.04-.18-.055-.046-.014-.09-.032-.138-.042-.111-.021-.224-.033-.337-.033H5.537c-.941 0-1.704.762-1.704 1.703 0 .94.763 1.704 1.704 1.704h7.813l-8.995 8.992c-.665.665-.666 1.744 0 2.41.665.665 1.744.665 2.41 0l8.995-8.993v7.814c0 .452.18.885.499 1.204.32.32.753.5 1.205.5.451 0 .885-.18 1.204-.5.32-.319.499-.752.499-1.204V5.667h-.003z" mask="url(#yx2sp0b3dW)"/>
            </g>
        </g>
        <g filter="url(#i860stcilX)">
            <g transform="translate(186.5 139)">
                <mask id="qrti9i16oZ" fill="#fff">
                    <use xlink:href="#55jkhjlblY"/>
                </mask>
                <path fill="#000C0A" fill-rule="nonzero" d="M19.164 5.667v-.038c-.001-.1-.011-.198-.03-.295-.013-.054-.029-.106-.047-.158-.014-.055-.03-.108-.05-.16-.026-.059-.056-.115-.089-.17-.023-.041-.04-.084-.067-.124-.125-.187-.285-.348-.472-.472-.043-.029-.09-.049-.134-.073-.052-.03-.105-.059-.159-.084-.059-.021-.119-.04-.18-.055-.046-.014-.09-.032-.138-.042-.111-.021-.224-.033-.337-.033H5.537c-.941 0-1.704.762-1.704 1.703 0 .94.763 1.704 1.704 1.704h7.813l-8.995 8.992c-.665.665-.666 1.744 0 2.41.665.665 1.744.665 2.41 0l8.995-8.993v7.814c0 .452.18.885.499 1.204.32.32.753.5 1.205.5.451 0 .885-.18 1.204-.5.32-.319.499-.752.499-1.204V5.667h-.003z" mask="url(#qrti9i16oZ)"/>
            </g>
        </g>
        <g filter="url(#x9aj7iuekaa)">
            <g transform="translate(139.5 24)">
                <mask id="c8nvhxttwac" fill="#fff">
                    <use xlink:href="#f7d4qx7i6ab"/>
                </mask>
                <path fill="#000C0A" fill-rule="nonzero" d="M19.164 5.667v-.038c-.001-.1-.011-.198-.03-.295-.013-.054-.029-.106-.047-.158-.014-.055-.03-.108-.05-.16-.026-.059-.056-.115-.089-.17-.023-.041-.04-.084-.067-.124-.125-.187-.285-.348-.472-.472-.043-.029-.09-.049-.134-.073-.052-.03-.105-.059-.159-.084-.059-.021-.119-.04-.18-.055-.046-.014-.09-.032-.138-.042-.111-.021-.224-.033-.337-.033H5.537c-.941 0-1.704.762-1.704 1.703 0 .94.763 1.704 1.704 1.704h7.813l-8.995 8.992c-.665.665-.666 1.744 0 2.41.665.665 1.744.665 2.41 0l8.995-8.993v7.814c0 .452.18.885.499 1.204.32.32.753.5 1.205.5.451 0 .885-.18 1.204-.5.32-.319.499-.752.499-1.204V5.667h-.003z" mask="url(#c8nvhxttwac)"/>
            </g>
        </g>
        <g filter="url(#dlyy2qdinad)">
            <g transform="translate(139.5 232)">
                <mask id="ryu929n7baf" fill="#fff">
                    <use xlink:href="#1o2ini6g6ae"/>
                </mask>
                <path fill="#000C0A" fill-rule="nonzero" d="M19.164 5.667v-.038c-.001-.1-.011-.198-.03-.295-.013-.054-.029-.106-.047-.158-.014-.055-.03-.108-.05-.16-.026-.059-.056-.115-.089-.17-.023-.041-.04-.084-.067-.124-.125-.187-.285-.348-.472-.472-.043-.029-.09-.049-.134-.073-.052-.03-.105-.059-.159-.084-.059-.021-.119-.04-.18-.055-.046-.014-.09-.032-.138-.042-.111-.021-.224-.033-.337-.033H5.537c-.941 0-1.704.762-1.704 1.703 0 .94.763 1.704 1.704 1.704h7.813l-8.995 8.992c-.665.665-.666 1.744 0 2.41.665.665 1.744.665 2.41 0l8.995-8.993v7.814c0 .452.18.885.499 1.204.32.32.753.5 1.205.5.451 0 .885-.18 1.204-.5.32-.319.499-.752.499-1.204V5.667h-.003z" mask="url(#ryu929n7baf)"/>
            </g>
        </g>
        <g filter="url(#2nfg9lem6ag)">
            <g transform="translate(139.5)">
                <mask id="d1g9mr19pai" fill="#fff">
                    <use xlink:href="#bx7phtrunah"/>
                </mask>
                <path fill="#000C0A" fill-rule="nonzero" d="M19.164 5.667v-.038c-.001-.1-.011-.198-.03-.295-.013-.054-.029-.106-.047-.158-.014-.055-.03-.108-.05-.16-.026-.059-.056-.115-.089-.17-.023-.041-.04-.084-.067-.124-.125-.187-.285-.348-.472-.472-.043-.029-.09-.049-.134-.073-.052-.03-.105-.059-.159-.084-.059-.021-.119-.04-.18-.055-.046-.014-.09-.032-.138-.042-.111-.021-.224-.033-.337-.033H5.537c-.941 0-1.704.762-1.704 1.703 0 .94.763 1.704 1.704 1.704h7.813l-8.995 8.992c-.665.665-.666 1.744 0 2.41.665.665 1.744.665 2.41 0l8.995-8.993v7.814c0 .452.18.885.499 1.204.32.32.753.5 1.205.5.451 0 .885-.18 1.204-.5.32-.319.499-.752.499-1.204V5.667h-.003z" mask="url(#d1g9mr19pai)"/>
            </g>
        </g>
        <g filter="url(#twdwcu9y1aj)">
            <g transform="translate(139.5 210)">
                <mask id="kk30jfkrgal" fill="#fff">
                    <use xlink:href="#yu105blhrak"/>
                </mask>
                <path fill="#000C0A" fill-rule="nonzero" d="M19.164 5.667v-.038c-.001-.1-.011-.198-.03-.295-.013-.054-.029-.106-.047-.158-.014-.055-.03-.108-.05-.16-.026-.059-.056-.115-.089-.17-.023-.041-.04-.084-.067-.124-.125-.187-.285-.348-.472-.472-.043-.029-.09-.049-.134-.073-.052-.03-.105-.059-.159-.084-.059-.021-.119-.04-.18-.055-.046-.014-.09-.032-.138-.042-.111-.021-.224-.033-.337-.033H5.537c-.941 0-1.704.762-1.704 1.703 0 .94.763 1.704 1.704 1.704h7.813l-8.995 8.992c-.665.665-.666 1.744 0 2.41.665.665 1.744.665 2.41 0l8.995-8.993v7.814c0 .452.18.885.499 1.204.32.32.753.5 1.205.5.451 0 .885-.18 1.204-.5.32-.319.499-.752.499-1.204V5.667h-.003z" mask="url(#kk30jfkrgal)"/>
            </g>
        </g>
        <g filter="url(#fd86h3b6kam)">
            <g transform="translate(139.5 163)">
                <mask id="ulnctsaomao" fill="#fff">
                    <use xlink:href="#4jkr2u1aqan"/>
                </mask>
                <path fill="#000C0A" fill-rule="nonzero" d="M19.164 5.667v-.038c-.001-.1-.011-.198-.03-.295-.013-.054-.029-.106-.047-.158-.014-.055-.03-.108-.05-.16-.026-.059-.056-.115-.089-.17-.023-.041-.04-.084-.067-.124-.125-.187-.285-.348-.472-.472-.043-.029-.09-.049-.134-.073-.052-.03-.105-.059-.159-.084-.059-.021-.119-.04-.18-.055-.046-.014-.09-.032-.138-.042-.111-.021-.224-.033-.337-.033H5.537c-.941 0-1.704.762-1.704 1.703 0 .94.763 1.704 1.704 1.704h7.813l-8.995 8.992c-.665.665-.666 1.744 0 2.41.665.665 1.744.665 2.41 0l8.995-8.993v7.814c0 .452.18.885.499 1.204.32.32.753.5 1.205.5.451 0 .885-.18 1.204-.5.32-.319.499-.752.499-1.204V5.667h-.003z" mask="url(#ulnctsaomao)"/>
            </g>
        </g>
        <g filter="url(#efrr36nqvap)">
            <g transform="translate(162.5 24)">
                <mask id="u3x6o3ovjar" fill="#fff">
                    <use xlink:href="#wt7726y9waq"/>
                </mask>
                <path fill="#000C0A" fill-rule="nonzero" d="M19.164 5.667v-.038c-.001-.1-.011-.198-.03-.295-.013-.054-.029-.106-.047-.158-.014-.055-.03-.108-.05-.16-.026-.059-.056-.115-.089-.17-.023-.041-.04-.084-.067-.124-.125-.187-.285-.348-.472-.472-.043-.029-.09-.049-.134-.073-.052-.03-.105-.059-.159-.084-.059-.021-.119-.04-.18-.055-.046-.014-.09-.032-.138-.042-.111-.021-.224-.033-.337-.033H5.537c-.941 0-1.704.762-1.704 1.703 0 .94.763 1.704 1.704 1.704h7.813l-8.995 8.992c-.665.665-.666 1.744 0 2.41.665.665 1.744.665 2.41 0l8.995-8.993v7.814c0 .452.18.885.499 1.204.32.32.753.5 1.205.5.451 0 .885-.18 1.204-.5.32-.319.499-.752.499-1.204V5.667h-.003z" mask="url(#u3x6o3ovjar)"/>
            </g>
        </g>
        <g filter="url(#q6s06tm88as)">
            <g transform="translate(162.5 232)">
                <mask id="3cq2viag0au" fill="#fff">
                    <use xlink:href="#ng3rlyklbat"/>
                </mask>
                <path fill="#000C0A" fill-rule="nonzero" d="M19.164 5.667v-.038c-.001-.1-.011-.198-.03-.295-.013-.054-.029-.106-.047-.158-.014-.055-.03-.108-.05-.16-.026-.059-.056-.115-.089-.17-.023-.041-.04-.084-.067-.124-.125-.187-.285-.348-.472-.472-.043-.029-.09-.049-.134-.073-.052-.03-.105-.059-.159-.084-.059-.021-.119-.04-.18-.055-.046-.014-.09-.032-.138-.042-.111-.021-.224-.033-.337-.033H5.537c-.941 0-1.704.762-1.704 1.703 0 .94.763 1.704 1.704 1.704h7.813l-8.995 8.992c-.665.665-.666 1.744 0 2.41.665.665 1.744.665 2.41 0l8.995-8.993v7.814c0 .452.18.885.499 1.204.32.32.753.5 1.205.5.451 0 .885-.18 1.204-.5.32-.319.499-.752.499-1.204V5.667h-.003z" mask="url(#3cq2viag0au)"/>
            </g>
        </g>
        <g filter="url(#czi7r2qfnav)">
            <g transform="translate(162.5)">
                <mask id="wcp2x3wpkax" fill="#fff">
                    <use xlink:href="#ipduv7wj6aw"/>
                </mask>
                <path fill="#000C0A" fill-rule="nonzero" d="M19.164 5.667v-.038c-.001-.1-.011-.198-.03-.295-.013-.054-.029-.106-.047-.158-.014-.055-.03-.108-.05-.16-.026-.059-.056-.115-.089-.17-.023-.041-.04-.084-.067-.124-.125-.187-.285-.348-.472-.472-.043-.029-.09-.049-.134-.073-.052-.03-.105-.059-.159-.084-.059-.021-.119-.04-.18-.055-.046-.014-.09-.032-.138-.042-.111-.021-.224-.033-.337-.033H5.537c-.941 0-1.704.762-1.704 1.703 0 .94.763 1.704 1.704 1.704h7.813l-8.995 8.992c-.665.665-.666 1.744 0 2.41.665.665 1.744.665 2.41 0l8.995-8.993v7.814c0 .452.18.885.499 1.204.32.32.753.5 1.205.5.451 0 .885-.18 1.204-.5.32-.319.499-.752.499-1.204V5.667h-.003z" mask="url(#wcp2x3wpkax)"/>
            </g>
        </g>
        <g filter="url(#x4bg5gr0tay)">
            <g transform="translate(162.5 210)">
                <mask id="v3xfk2ckiaA" fill="#fff">
                    <use xlink:href="#lbyvokckfaz"/>
                </mask>
                <path fill="#000C0A" fill-rule="nonzero" d="M19.164 5.667v-.038c-.001-.1-.011-.198-.03-.295-.013-.054-.029-.106-.047-.158-.014-.055-.03-.108-.05-.16-.026-.059-.056-.115-.089-.17-.023-.041-.04-.084-.067-.124-.125-.187-.285-.348-.472-.472-.043-.029-.09-.049-.134-.073-.052-.03-.105-.059-.159-.084-.059-.021-.119-.04-.18-.055-.046-.014-.09-.032-.138-.042-.111-.021-.224-.033-.337-.033H5.537c-.941 0-1.704.762-1.704 1.703 0 .94.763 1.704 1.704 1.704h7.813l-8.995 8.992c-.665.665-.666 1.744 0 2.41.665.665 1.744.665 2.41 0l8.995-8.993v7.814c0 .452.18.885.499 1.204.32.32.753.5 1.205.5.451 0 .885-.18 1.204-.5.32-.319.499-.752.499-1.204V5.667h-.003z" mask="url(#v3xfk2ckiaA)"/>
            </g>
        </g>
        <g filter="url(#nygjnnxooaB)">
            <g transform="translate(186.5 210)">
                <mask id="u8e1fa63baD" fill="#fff">
                    <use xlink:href="#0orvpc34xaC"/>
                </mask>
                <path fill="#000C0A" fill-rule="nonzero" d="M19.164 5.667v-.038c-.001-.1-.011-.198-.03-.295-.013-.054-.029-.106-.047-.158-.014-.055-.03-.108-.05-.16-.026-.059-.056-.115-.089-.17-.023-.041-.04-.084-.067-.124-.125-.187-.285-.348-.472-.472-.043-.029-.09-.049-.134-.073-.052-.03-.105-.059-.159-.084-.059-.021-.119-.04-.18-.055-.046-.014-.09-.032-.138-.042-.111-.021-.224-.033-.337-.033H5.537c-.941 0-1.704.762-1.704 1.703 0 .94.763 1.704 1.704 1.704h7.813l-8.995 8.992c-.665.665-.666 1.744 0 2.41.665.665 1.744.665 2.41 0l8.995-8.993v7.814c0 .452.18.885.499 1.204.32.32.753.5 1.205.5.451 0 .885-.18 1.204-.5.32-.319.499-.752.499-1.204V5.667h-.003z" mask="url(#u8e1fa63baD)"/>
            </g>
        </g>
        <g filter="url(#n6f1zhbfiaE)">
            <g transform="translate(162.5 163)">
                <mask id="t0molqbq0aG" fill="#fff">
                    <use xlink:href="#cpcac95uyaF"/>
                </mask>
                <path fill="#000C0A" fill-rule="nonzero" d="M19.164 5.667v-.038c-.001-.1-.011-.198-.03-.295-.013-.054-.029-.106-.047-.158-.014-.055-.03-.108-.05-.16-.026-.059-.056-.115-.089-.17-.023-.041-.04-.084-.067-.124-.125-.187-.285-.348-.472-.472-.043-.029-.09-.049-.134-.073-.052-.03-.105-.059-.159-.084-.059-.021-.119-.04-.18-.055-.046-.014-.09-.032-.138-.042-.111-.021-.224-.033-.337-.033H5.537c-.941 0-1.704.762-1.704 1.703 0 .94.763 1.704 1.704 1.704h7.813l-8.995 8.992c-.665.665-.666 1.744 0 2.41.665.665 1.744.665 2.41 0l8.995-8.993v7.814c0 .452.18.885.499 1.204.32.32.753.5 1.205.5.451 0 .885-.18 1.204-.5.32-.319.499-.752.499-1.204V5.667h-.003z" mask="url(#t0molqbq0aG)"/>
            </g>
        </g>
        <g filter="url(#bnosmjrshaH)">
            <g transform="translate(186.5 24)">
                <mask id="z3xqly7paaJ" fill="#fff">
                    <use xlink:href="#sa0hbqgdiaI"/>
                </mask>
                <path fill="#000C0A" fill-rule="nonzero" d="M19.164 5.667v-.038c-.001-.1-.011-.198-.03-.295-.013-.054-.029-.106-.047-.158-.014-.055-.03-.108-.05-.16-.026-.059-.056-.115-.089-.17-.023-.041-.04-.084-.067-.124-.125-.187-.285-.348-.472-.472-.043-.029-.09-.049-.134-.073-.052-.03-.105-.059-.159-.084-.059-.021-.119-.04-.18-.055-.046-.014-.09-.032-.138-.042-.111-.021-.224-.033-.337-.033H5.537c-.941 0-1.704.762-1.704 1.703 0 .94.763 1.704 1.704 1.704h7.813l-8.995 8.992c-.665.665-.666 1.744 0 2.41.665.665 1.744.665 2.41 0l8.995-8.993v7.814c0 .452.18.885.499 1.204.32.32.753.5 1.205.5.451 0 .885-.18 1.204-.5.32-.319.499-.752.499-1.204V5.667h-.003z" mask="url(#z3xqly7paaJ)"/>
            </g>
        </g>
        <g filter="url(#8yn8fjgdhaK)">
            <g transform="translate(186.5 232)">
                <mask id="o336h0aw8aM" fill="#fff">
                    <use xlink:href="#jku34zsdxaL"/>
                </mask>
                <path fill="#000C0A" fill-rule="nonzero" d="M19.164 5.667v-.038c-.001-.1-.011-.198-.03-.295-.013-.054-.029-.106-.047-.158-.014-.055-.03-.108-.05-.16-.026-.059-.056-.115-.089-.17-.023-.041-.04-.084-.067-.124-.125-.187-.285-.348-.472-.472-.043-.029-.09-.049-.134-.073-.052-.03-.105-.059-.159-.084-.059-.021-.119-.04-.18-.055-.046-.014-.09-.032-.138-.042-.111-.021-.224-.033-.337-.033H5.537c-.941 0-1.704.762-1.704 1.703 0 .94.763 1.704 1.704 1.704h7.813l-8.995 8.992c-.665.665-.666 1.744 0 2.41.665.665 1.744.665 2.41 0l8.995-8.993v7.814c0 .452.18.885.499 1.204.32.32.753.5 1.205.5.451 0 .885-.18 1.204-.5.32-.319.499-.752.499-1.204V5.667h-.003z" mask="url(#o336h0aw8aM)"/>
            </g>
        </g>
        <g filter="url(#yx6g81i8oaN)">
            <g transform="translate(209.5 232)">
                <mask id="iu6t4uz89aP" fill="#fff">
                    <use xlink:href="#4ik7wsi3eaO"/>
                </mask>
                <path fill="#000C0A" fill-rule="nonzero" d="M19.164 5.667v-.038c-.001-.1-.011-.198-.03-.295-.013-.054-.029-.106-.047-.158-.014-.055-.03-.108-.05-.16-.026-.059-.056-.115-.089-.17-.023-.041-.04-.084-.067-.124-.125-.187-.285-.348-.472-.472-.043-.029-.09-.049-.134-.073-.052-.03-.105-.059-.159-.084-.059-.021-.119-.04-.18-.055-.046-.014-.09-.032-.138-.042-.111-.021-.224-.033-.337-.033H5.537c-.941 0-1.704.762-1.704 1.703 0 .94.763 1.704 1.704 1.704h7.813l-8.995 8.992c-.665.665-.666 1.744 0 2.41.665.665 1.744.665 2.41 0l8.995-8.993v7.814c0 .452.18.885.499 1.204.32.32.753.5 1.205.5.451 0 .885-.18 1.204-.5.32-.319.499-.752.499-1.204V5.667h-.003z" mask="url(#iu6t4uz89aP)"/>
            </g>
        </g>
        <g filter="url(#l1mx7i522aQ)">
            <g transform="translate(232.5 232)">
                <mask id="acdiui5claS" fill="#fff">
                    <use xlink:href="#fw4o6a0c0aR"/>
                </mask>
                <path fill="#000C0A" fill-rule="nonzero" d="M19.164 5.667v-.038c-.001-.1-.011-.198-.03-.295-.013-.054-.029-.106-.047-.158-.014-.055-.03-.108-.05-.16-.026-.059-.056-.115-.089-.17-.023-.041-.04-.084-.067-.124-.125-.187-.285-.348-.472-.472-.043-.029-.09-.049-.134-.073-.052-.03-.105-.059-.159-.084-.059-.021-.119-.04-.18-.055-.046-.014-.09-.032-.138-.042-.111-.021-.224-.033-.337-.033H5.537c-.941 0-1.704.762-1.704 1.703 0 .94.763 1.704 1.704 1.704h7.813l-8.995 8.992c-.665.665-.666 1.744 0 2.41.665.665 1.744.665 2.41 0l8.995-8.993v7.814c0 .452.18.885.499 1.204.32.32.753.5 1.205.5.451 0 .885-.18 1.204-.5.32-.319.499-.752.499-1.204V5.667h-.003z" mask="url(#acdiui5claS)"/>
            </g>
        </g>
        <g filter="url(#t1syh2l6maT)">
            <g transform="translate(139.5 70)">
                <mask id="fhohydizlaV" fill="#fff">
                    <use xlink:href="#9idc080zpaU"/>
                </mask>
                <path fill="#000C0A" fill-rule="nonzero" d="M19.164 5.667v-.038c-.001-.1-.011-.198-.03-.295-.013-.054-.029-.106-.047-.158-.014-.055-.03-.108-.05-.16-.026-.059-.056-.115-.089-.17-.023-.041-.04-.084-.067-.124-.125-.187-.285-.348-.472-.472-.043-.029-.09-.049-.134-.073-.052-.03-.105-.059-.159-.084-.059-.021-.119-.04-.18-.055-.046-.014-.09-.032-.138-.042-.111-.021-.224-.033-.337-.033H5.537c-.941 0-1.704.762-1.704 1.703 0 .94.763 1.704 1.704 1.704h7.813l-8.995 8.992c-.665.665-.666 1.744 0 2.41.665.665 1.744.665 2.41 0l8.995-8.993v7.814c0 .452.18.885.499 1.204.32.32.753.5 1.205.5.451 0 .885-.18 1.204-.5.32-.319.499-.752.499-1.204V5.667h-.003z" mask="url(#fhohydizlaV)"/>
            </g>
        </g>
        <g filter="url(#2cro5mw0vaW)">
            <g transform="translate(139.5 93)">
                <mask id="11uxomz8kaY" fill="#fff">
                    <use xlink:href="#om2zkr18yaX"/>
                </mask>
                <path fill="#000C0A" fill-rule="nonzero" d="M19.164 5.667v-.038c-.001-.1-.011-.198-.03-.295-.013-.054-.029-.106-.047-.158-.014-.055-.03-.108-.05-.16-.026-.059-.056-.115-.089-.17-.023-.041-.04-.084-.067-.124-.125-.187-.285-.348-.472-.472-.043-.029-.09-.049-.134-.073-.052-.03-.105-.059-.159-.084-.059-.021-.119-.04-.18-.055-.046-.014-.09-.032-.138-.042-.111-.021-.224-.033-.337-.033H5.537c-.941 0-1.704.762-1.704 1.703 0 .94.763 1.704 1.704 1.704h7.813l-8.995 8.992c-.665.665-.666 1.744 0 2.41.665.665 1.744.665 2.41 0l8.995-8.993v7.814c0 .452.18.885.499 1.204.32.32.753.5 1.205.5.451 0 .885-.18 1.204-.5.32-.319.499-.752.499-1.204V5.667h-.003z" mask="url(#11uxomz8kaY)"/>
            </g>
        </g>
        <g filter="url(#370rh8irbaZ)">
            <g transform="translate(139.5 46)">
                <mask id="go9lwhez8bb" fill="#fff">
                    <use xlink:href="#00hhiv2ipba"/>
                </mask>
                <path fill="#000C0A" fill-rule="nonzero" d="M19.164 5.667v-.038c-.001-.1-.011-.198-.03-.295-.013-.054-.029-.106-.047-.158-.014-.055-.03-.108-.05-.16-.026-.059-.056-.115-.089-.17-.023-.041-.04-.084-.067-.124-.125-.187-.285-.348-.472-.472-.043-.029-.09-.049-.134-.073-.052-.03-.105-.059-.159-.084-.059-.021-.119-.04-.18-.055-.046-.014-.09-.032-.138-.042-.111-.021-.224-.033-.337-.033H5.537c-.941 0-1.704.762-1.704 1.703 0 .94.763 1.704 1.704 1.704h7.813l-8.995 8.992c-.665.665-.666 1.744 0 2.41.665.665 1.744.665 2.41 0l8.995-8.993v7.814c0 .452.18.885.499 1.204.32.32.753.5 1.205.5.451 0 .885-.18 1.204-.5.32-.319.499-.752.499-1.204V5.667h-.003z" mask="url(#go9lwhez8bb)"/>
            </g>
        </g>
        <g filter="url(#0chjqt3cubc)">
            <g transform="translate(139.5 256)">
                <mask id="6bywk0l93be" fill="#fff">
                    <use xlink:href="#k22yom5ecbd"/>
                </mask>
                <path fill="#000C0A" fill-rule="nonzero" d="M19.164 5.667v-.038c-.001-.1-.011-.198-.03-.295-.013-.054-.029-.106-.047-.158-.014-.055-.03-.108-.05-.16-.026-.059-.056-.115-.089-.17-.023-.041-.04-.084-.067-.124-.125-.187-.285-.348-.472-.472-.043-.029-.09-.049-.134-.073-.052-.03-.105-.059-.159-.084-.059-.021-.119-.04-.18-.055-.046-.014-.09-.032-.138-.042-.111-.021-.224-.033-.337-.033H5.537c-.941 0-1.704.762-1.704 1.703 0 .94.763 1.704 1.704 1.704h7.813l-8.995 8.992c-.665.665-.666 1.744 0 2.41.665.665 1.744.665 2.41 0l8.995-8.993v7.814c0 .452.18.885.499 1.204.32.32.753.5 1.205.5.451 0 .885-.18 1.204-.5.32-.319.499-.752.499-1.204V5.667h-.003z" mask="url(#6bywk0l93be)"/>
            </g>
        </g>
        <g filter="url(#19tkwu7ckbf)">
            <g transform="translate(162.5 117)">
                <mask id="a1ea9anzbbh" fill="#fff">
                    <use xlink:href="#ppccbbnskbg"/>
                </mask>
                <path fill="#000C0A" fill-rule="nonzero" d="M19.164 5.667v-.038c-.001-.1-.011-.198-.03-.295-.013-.054-.029-.106-.047-.158-.014-.055-.03-.108-.05-.16-.026-.059-.056-.115-.089-.17-.023-.041-.04-.084-.067-.124-.125-.187-.285-.348-.472-.472-.043-.029-.09-.049-.134-.073-.052-.03-.105-.059-.159-.084-.059-.021-.119-.04-.18-.055-.046-.014-.09-.032-.138-.042-.111-.021-.224-.033-.337-.033H5.537c-.941 0-1.704.762-1.704 1.703 0 .94.763 1.704 1.704 1.704h7.813l-8.995 8.992c-.665.665-.666 1.744 0 2.41.665.665 1.744.665 2.41 0l8.995-8.993v7.814c0 .452.18.885.499 1.204.32.32.753.5 1.205.5.451 0 .885-.18 1.204-.5.32-.319.499-.752.499-1.204V5.667h-.003z" mask="url(#a1ea9anzbbh)"/>
            </g>
        </g>
        <g filter="url(#e95asqisubi)">
            <g transform="translate(186.5 117)">
                <mask id="q5biz3fumbk" fill="#fff">
                    <use xlink:href="#rx6n32mq0bj"/>
                </mask>
                <path fill="#000C0A" fill-rule="nonzero" d="M19.164 5.667v-.038c-.001-.1-.011-.198-.03-.295-.013-.054-.029-.106-.047-.158-.014-.055-.03-.108-.05-.16-.026-.059-.056-.115-.089-.17-.023-.041-.04-.084-.067-.124-.125-.187-.285-.348-.472-.472-.043-.029-.09-.049-.134-.073-.052-.03-.105-.059-.159-.084-.059-.021-.119-.04-.18-.055-.046-.014-.09-.032-.138-.042-.111-.021-.224-.033-.337-.033H5.537c-.941 0-1.704.762-1.704 1.703 0 .94.763 1.704 1.704 1.704h7.813l-8.995 8.992c-.665.665-.666 1.744 0 2.41.665.665 1.744.665 2.41 0l8.995-8.993v7.814c0 .452.18.885.499 1.204.32.32.753.5 1.205.5.451 0 .885-.18 1.204-.5.32-.319.499-.752.499-1.204V5.667h-.003z" mask="url(#q5biz3fumbk)"/>
            </g>
        </g>
        <g filter="url(#5jf35yd5fbl)">
            <g transform="translate(209.5 117)">
                <mask id="aps7rtkj3bn" fill="#fff">
                    <use xlink:href="#5ase0zhxdbm"/>
                </mask>
                <path fill="#000C0A" fill-rule="nonzero" d="M19.164 5.667v-.038c-.001-.1-.011-.198-.03-.295-.013-.054-.029-.106-.047-.158-.014-.055-.03-.108-.05-.16-.026-.059-.056-.115-.089-.17-.023-.041-.04-.084-.067-.124-.125-.187-.285-.348-.472-.472-.043-.029-.09-.049-.134-.073-.052-.03-.105-.059-.159-.084-.059-.021-.119-.04-.18-.055-.046-.014-.09-.032-.138-.042-.111-.021-.224-.033-.337-.033H5.537c-.941 0-1.704.762-1.704 1.703 0 .94.763 1.704 1.704 1.704h7.813l-8.995 8.992c-.665.665-.666 1.744 0 2.41.665.665 1.744.665 2.41 0l8.995-8.993v7.814c0 .452.18.885.499 1.204.32.32.753.5 1.205.5.451 0 .885-.18 1.204-.5.32-.319.499-.752.499-1.204V5.667h-.003z" mask="url(#aps7rtkj3bn)"/>
            </g>
        </g>
        <g filter="url(#g3mv39s2sbo)">
            <g transform="translate(162.5 70)">
                <mask id="636yxlzocbq" fill="#fff">
                    <use xlink:href="#xrr59hhxrbp"/>
                </mask>
                <path fill="#000C0A" fill-rule="nonzero" d="M19.164 5.667v-.038c-.001-.1-.011-.198-.03-.295-.013-.054-.029-.106-.047-.158-.014-.055-.03-.108-.05-.16-.026-.059-.056-.115-.089-.17-.023-.041-.04-.084-.067-.124-.125-.187-.285-.348-.472-.472-.043-.029-.09-.049-.134-.073-.052-.03-.105-.059-.159-.084-.059-.021-.119-.04-.18-.055-.046-.014-.09-.032-.138-.042-.111-.021-.224-.033-.337-.033H5.537c-.941 0-1.704.762-1.704 1.703 0 .94.763 1.704 1.704 1.704h7.813l-8.995 8.992c-.665.665-.666 1.744 0 2.41.665.665 1.744.665 2.41 0l8.995-8.993v7.814c0 .452.18.885.499 1.204.32.32.753.5 1.205.5.451 0 .885-.18 1.204-.5.32-.319.499-.752.499-1.204V5.667h-.003z" mask="url(#636yxlzocbq)"/>
            </g>
        </g>
        <g filter="url(#5lmw4u5uvbr)">
            <g transform="translate(186.5 70)">
                <mask id="23r1pqvmnbt" fill="#fff">
                    <use xlink:href="#ryw9d7f77bs"/>
                </mask>
                <path fill="#000C0A" fill-rule="nonzero" d="M19.164 5.667v-.038c-.001-.1-.011-.198-.03-.295-.013-.054-.029-.106-.047-.158-.014-.055-.03-.108-.05-.16-.026-.059-.056-.115-.089-.17-.023-.041-.04-.084-.067-.124-.125-.187-.285-.348-.472-.472-.043-.029-.09-.049-.134-.073-.052-.03-.105-.059-.159-.084-.059-.021-.119-.04-.18-.055-.046-.014-.09-.032-.138-.042-.111-.021-.224-.033-.337-.033H5.537c-.941 0-1.704.762-1.704 1.703 0 .94.763 1.704 1.704 1.704h7.813l-8.995 8.992c-.665.665-.666 1.744 0 2.41.665.665 1.744.665 2.41 0l8.995-8.993v7.814c0 .452.18.885.499 1.204.32.32.753.5 1.205.5.451 0 .885-.18 1.204-.5.32-.319.499-.752.499-1.204V5.667h-.003z" mask="url(#23r1pqvmnbt)"/>
            </g>
        </g>
        <g filter="url(#q6n9s5ro8bu)">
            <g transform="translate(209.5 70)">
                <mask id="i82vwnnxtbw" fill="#fff">
                    <use xlink:href="#9375gslf1bv"/>
                </mask>
                <path fill="#000C0A" fill-rule="nonzero" d="M19.164 5.667v-.038c-.001-.1-.011-.198-.03-.295-.013-.054-.029-.106-.047-.158-.014-.055-.03-.108-.05-.16-.026-.059-.056-.115-.089-.17-.023-.041-.04-.084-.067-.124-.125-.187-.285-.348-.472-.472-.043-.029-.09-.049-.134-.073-.052-.03-.105-.059-.159-.084-.059-.021-.119-.04-.18-.055-.046-.014-.09-.032-.138-.042-.111-.021-.224-.033-.337-.033H5.537c-.941 0-1.704.762-1.704 1.703 0 .94.763 1.704 1.704 1.704h7.813l-8.995 8.992c-.665.665-.666 1.744 0 2.41.665.665 1.744.665 2.41 0l8.995-8.993v7.814c0 .452.18.885.499 1.204.32.32.753.5 1.205.5.451 0 .885-.18 1.204-.5.32-.319.499-.752.499-1.204V5.667h-.003z" mask="url(#i82vwnnxtbw)"/>
            </g>
        </g>
        <g filter="url(#rbc5z41yrbx)">
            <g transform="translate(69.5 70)">
                <mask id="qt5beipogbz" fill="#fff">
                    <use xlink:href="#eaf568e7cby"/>
                </mask>
                <path fill="#000C0A" fill-rule="nonzero" d="M19.164 5.667v-.038c-.001-.1-.011-.198-.03-.295-.013-.054-.029-.106-.047-.158-.014-.055-.03-.108-.05-.16-.026-.059-.056-.115-.089-.17-.023-.041-.04-.084-.067-.124-.125-.187-.285-.348-.472-.472-.043-.029-.09-.049-.134-.073-.052-.03-.105-.059-.159-.084-.059-.021-.119-.04-.18-.055-.046-.014-.09-.032-.138-.042-.111-.021-.224-.033-.337-.033H5.537c-.941 0-1.704.762-1.704 1.703 0 .94.763 1.704 1.704 1.704h7.813l-8.995 8.992c-.665.665-.666 1.744 0 2.41.665.665 1.744.665 2.41 0l8.995-8.993v7.814c0 .452.18.885.499 1.204.32.32.753.5 1.205.5.451 0 .885-.18 1.204-.5.32-.319.499-.752.499-1.204V5.667h-.003z" mask="url(#qt5beipogbz)"/>
            </g>
        </g>
        <g filter="url(#2cxahv7w7bA)">
            <g transform="translate(46.5 70)">
                <mask id="pjuepr294bC" fill="#fff">
                    <use xlink:href="#ekv7kjhe3bB"/>
                </mask>
                <path fill="#000C0A" fill-rule="nonzero" d="M19.164 5.667v-.038c-.001-.1-.011-.198-.03-.295-.013-.054-.029-.106-.047-.158-.014-.055-.03-.108-.05-.16-.026-.059-.056-.115-.089-.17-.023-.041-.04-.084-.067-.124-.125-.187-.285-.348-.472-.472-.043-.029-.09-.049-.134-.073-.052-.03-.105-.059-.159-.084-.059-.021-.119-.04-.18-.055-.046-.014-.09-.032-.138-.042-.111-.021-.224-.033-.337-.033H5.537c-.941 0-1.704.762-1.704 1.703 0 .94.763 1.704 1.704 1.704h7.813l-8.995 8.992c-.665.665-.666 1.744 0 2.41.665.665 1.744.665 2.41 0l8.995-8.993v7.814c0 .452.18.885.499 1.204.32.32.753.5 1.205.5.451 0 .885-.18 1.204-.5.32-.319.499-.752.499-1.204V5.667h-.003z" mask="url(#pjuepr294bC)"/>
            </g>
        </g>
        <g filter="url(#l6puqnntrbD)">
            <g transform="translate(162.5 93)">
                <mask id="u4612bn5tbF" fill="#fff">
                    <use xlink:href="#s17wzevmdbE"/>
                </mask>
                <path fill="#000C0A" fill-rule="nonzero" d="M19.164 5.667v-.038c-.001-.1-.011-.198-.03-.295-.013-.054-.029-.106-.047-.158-.014-.055-.03-.108-.05-.16-.026-.059-.056-.115-.089-.17-.023-.041-.04-.084-.067-.124-.125-.187-.285-.348-.472-.472-.043-.029-.09-.049-.134-.073-.052-.03-.105-.059-.159-.084-.059-.021-.119-.04-.18-.055-.046-.014-.09-.032-.138-.042-.111-.021-.224-.033-.337-.033H5.537c-.941 0-1.704.762-1.704 1.703 0 .94.763 1.704 1.704 1.704h7.813l-8.995 8.992c-.665.665-.666 1.744 0 2.41.665.665 1.744.665 2.41 0l8.995-8.993v7.814c0 .452.18.885.499 1.204.32.32.753.5 1.205.5.451 0 .885-.18 1.204-.5.32-.319.499-.752.499-1.204V5.667h-.003z" mask="url(#u4612bn5tbF)"/>
            </g>
        </g>
        <g filter="url(#ipjvgs5zdbG)">
            <g transform="translate(186.5 93)">
                <mask id="db76fozb9bI" fill="#fff">
                    <use xlink:href="#87ew3hn1tbH"/>
                </mask>
                <path fill="#000C0A" fill-rule="nonzero" d="M19.164 5.667v-.038c-.001-.1-.011-.198-.03-.295-.013-.054-.029-.106-.047-.158-.014-.055-.03-.108-.05-.16-.026-.059-.056-.115-.089-.17-.023-.041-.04-.084-.067-.124-.125-.187-.285-.348-.472-.472-.043-.029-.09-.049-.134-.073-.052-.03-.105-.059-.159-.084-.059-.021-.119-.04-.18-.055-.046-.014-.09-.032-.138-.042-.111-.021-.224-.033-.337-.033H5.537c-.941 0-1.704.762-1.704 1.703 0 .94.763 1.704 1.704 1.704h7.813l-8.995 8.992c-.665.665-.666 1.744 0 2.41.665.665 1.744.665 2.41 0l8.995-8.993v7.814c0 .452.18.885.499 1.204.32.32.753.5 1.205.5.451 0 .885-.18 1.204-.5.32-.319.499-.752.499-1.204V5.667h-.003z" mask="url(#db76fozb9bI)"/>
            </g>
        </g>
        <g filter="url(#z91gpslvbbJ)">
            <g transform="translate(209.5 93)">
                <mask id="5y2dizo93bL" fill="#fff">
                    <use xlink:href="#somgi4029bK"/>
                </mask>
                <path fill="#000C0A" fill-rule="nonzero" d="M19.164 5.667v-.038c-.001-.1-.011-.198-.03-.295-.013-.054-.029-.106-.047-.158-.014-.055-.03-.108-.05-.16-.026-.059-.056-.115-.089-.17-.023-.041-.04-.084-.067-.124-.125-.187-.285-.348-.472-.472-.043-.029-.09-.049-.134-.073-.052-.03-.105-.059-.159-.084-.059-.021-.119-.04-.18-.055-.046-.014-.09-.032-.138-.042-.111-.021-.224-.033-.337-.033H5.537c-.941 0-1.704.762-1.704 1.703 0 .94.763 1.704 1.704 1.704h7.813l-8.995 8.992c-.665.665-.666 1.744 0 2.41.665.665 1.744.665 2.41 0l8.995-8.993v7.814c0 .452.18.885.499 1.204.32.32.753.5 1.205.5.451 0 .885-.18 1.204-.5.32-.319.499-.752.499-1.204V5.667h-.003z" mask="url(#5y2dizo93bL)"/>
            </g>
        </g>
        <g filter="url(#t3ix19152bM)">
            <g transform="translate(69.5 93)">
                <mask id="8dxv92hznbO" fill="#fff">
                    <use xlink:href="#k2scsvv5wbN"/>
                </mask>
                <path fill="#000C0A" fill-rule="nonzero" d="M19.164 5.667v-.038c-.001-.1-.011-.198-.03-.295-.013-.054-.029-.106-.047-.158-.014-.055-.03-.108-.05-.16-.026-.059-.056-.115-.089-.17-.023-.041-.04-.084-.067-.124-.125-.187-.285-.348-.472-.472-.043-.029-.09-.049-.134-.073-.052-.03-.105-.059-.159-.084-.059-.021-.119-.04-.18-.055-.046-.014-.09-.032-.138-.042-.111-.021-.224-.033-.337-.033H5.537c-.941 0-1.704.762-1.704 1.703 0 .94.763 1.704 1.704 1.704h7.813l-8.995 8.992c-.665.665-.666 1.744 0 2.41.665.665 1.744.665 2.41 0l8.995-8.993v7.814c0 .452.18.885.499 1.204.32.32.753.5 1.205.5.451 0 .885-.18 1.204-.5.32-.319.499-.752.499-1.204V5.667h-.003z" mask="url(#8dxv92hznbO)"/>
            </g>
        </g>
        <g filter="url(#5rlns25qgbP)">
            <g transform="translate(46.5 93)">
                <mask id="wqjh5fxpgbR" fill="#fff">
                    <use xlink:href="#z2t8h0eodbQ"/>
                </mask>
                <path fill="#000C0A" fill-rule="nonzero" d="M19.164 5.667v-.038c-.001-.1-.011-.198-.03-.295-.013-.054-.029-.106-.047-.158-.014-.055-.03-.108-.05-.16-.026-.059-.056-.115-.089-.17-.023-.041-.04-.084-.067-.124-.125-.187-.285-.348-.472-.472-.043-.029-.09-.049-.134-.073-.052-.03-.105-.059-.159-.084-.059-.021-.119-.04-.18-.055-.046-.014-.09-.032-.138-.042-.111-.021-.224-.033-.337-.033H5.537c-.941 0-1.704.762-1.704 1.703 0 .94.763 1.704 1.704 1.704h7.813l-8.995 8.992c-.665.665-.666 1.744 0 2.41.665.665 1.744.665 2.41 0l8.995-8.993v7.814c0 .452.18.885.499 1.204.32.32.753.5 1.205.5.451 0 .885-.18 1.204-.5.32-.319.499-.752.499-1.204V5.667h-.003z" mask="url(#wqjh5fxpgbR)"/>
            </g>
        </g>
        <g filter="url(#mavhp2wscbS)">
            <g transform="translate(162.5 46)">
                <mask id="iij3e3146bU" fill="#fff">
                    <use xlink:href="#lt1mpi2ipbT"/>
                </mask>
                <path fill="#000C0A" fill-rule="nonzero" d="M19.164 5.667v-.038c-.001-.1-.011-.198-.03-.295-.013-.054-.029-.106-.047-.158-.014-.055-.03-.108-.05-.16-.026-.059-.056-.115-.089-.17-.023-.041-.04-.084-.067-.124-.125-.187-.285-.348-.472-.472-.043-.029-.09-.049-.134-.073-.052-.03-.105-.059-.159-.084-.059-.021-.119-.04-.18-.055-.046-.014-.09-.032-.138-.042-.111-.021-.224-.033-.337-.033H5.537c-.941 0-1.704.762-1.704 1.703 0 .94.763 1.704 1.704 1.704h7.813l-8.995 8.992c-.665.665-.666 1.744 0 2.41.665.665 1.744.665 2.41 0l8.995-8.993v7.814c0 .452.18.885.499 1.204.32.32.753.5 1.205.5.451 0 .885-.18 1.204-.5.32-.319.499-.752.499-1.204V5.667h-.003z" mask="url(#iij3e3146bU)"/>
            </g>
        </g>
        <g filter="url(#r5d2eqfogbV)">
            <g transform="translate(162.5 256)">
                <mask id="pyvmlyvdwbX" fill="#fff">
                    <use xlink:href="#4u9r7ndmpbW"/>
                </mask>
                <path fill="#000C0A" fill-rule="nonzero" d="M19.164 5.667v-.038c-.001-.1-.011-.198-.03-.295-.013-.054-.029-.106-.047-.158-.014-.055-.03-.108-.05-.16-.026-.059-.056-.115-.089-.17-.023-.041-.04-.084-.067-.124-.125-.187-.285-.348-.472-.472-.043-.029-.09-.049-.134-.073-.052-.03-.105-.059-.159-.084-.059-.021-.119-.04-.18-.055-.046-.014-.09-.032-.138-.042-.111-.021-.224-.033-.337-.033H5.537c-.941 0-1.704.762-1.704 1.703 0 .94.763 1.704 1.704 1.704h7.813l-8.995 8.992c-.665.665-.666 1.744 0 2.41.665.665 1.744.665 2.41 0l8.995-8.993v7.814c0 .452.18.885.499 1.204.32.32.753.5 1.205.5.451 0 .885-.18 1.204-.5.32-.319.499-.752.499-1.204V5.667h-.003z" mask="url(#pyvmlyvdwbX)"/>
            </g>
        </g>
        <g filter="url(#cfu0yp73dbY)">
            <g transform="translate(186.5 46)">
                <mask id="8yee58gq6ca" fill="#fff">
                    <use xlink:href="#1om66r7wtbZ"/>
                </mask>
                <path fill="#000C0A" fill-rule="nonzero" d="M19.164 5.667v-.038c-.001-.1-.011-.198-.03-.295-.013-.054-.029-.106-.047-.158-.014-.055-.03-.108-.05-.16-.026-.059-.056-.115-.089-.17-.023-.041-.04-.084-.067-.124-.125-.187-.285-.348-.472-.472-.043-.029-.09-.049-.134-.073-.052-.03-.105-.059-.159-.084-.059-.021-.119-.04-.18-.055-.046-.014-.09-.032-.138-.042-.111-.021-.224-.033-.337-.033H5.537c-.941 0-1.704.762-1.704 1.703 0 .94.763 1.704 1.704 1.704h7.813l-8.995 8.992c-.665.665-.666 1.744 0 2.41.665.665 1.744.665 2.41 0l8.995-8.993v7.814c0 .452.18.885.499 1.204.32.32.753.5 1.205.5.451 0 .885-.18 1.204-.5.32-.319.499-.752.499-1.204V5.667h-.003z" mask="url(#8yee58gq6ca)"/>
            </g>
        </g>
        <g filter="url(#wrbsq6mbhcb)">
            <g transform="translate(186.5 256)">
                <mask id="for5ad2tmcd" fill="#fff">
                    <use xlink:href="#d7eafi2qycc"/>
                </mask>
                <path fill="#000C0A" fill-rule="nonzero" d="M19.164 5.667v-.038c-.001-.1-.011-.198-.03-.295-.013-.054-.029-.106-.047-.158-.014-.055-.03-.108-.05-.16-.026-.059-.056-.115-.089-.17-.023-.041-.04-.084-.067-.124-.125-.187-.285-.348-.472-.472-.043-.029-.09-.049-.134-.073-.052-.03-.105-.059-.159-.084-.059-.021-.119-.04-.18-.055-.046-.014-.09-.032-.138-.042-.111-.021-.224-.033-.337-.033H5.537c-.941 0-1.704.762-1.704 1.703 0 .94.763 1.704 1.704 1.704h7.813l-8.995 8.992c-.665.665-.666 1.744 0 2.41.665.665 1.744.665 2.41 0l8.995-8.993v7.814c0 .452.18.885.499 1.204.32.32.753.5 1.205.5.451 0 .885-.18 1.204-.5.32-.319.499-.752.499-1.204V5.667h-.003z" mask="url(#for5ad2tmcd)"/>
            </g>
        </g>
        <g filter="url(#phk4bslm3ce)">
            <g transform="translate(209.5 46)">
                <mask id="ukl8cmc7xcg" fill="#fff">
                    <use xlink:href="#ijz62jfgscf"/>
                </mask>
                <path fill="#000C0A" fill-rule="nonzero" d="M19.164 5.667v-.038c-.001-.1-.011-.198-.03-.295-.013-.054-.029-.106-.047-.158-.014-.055-.03-.108-.05-.16-.026-.059-.056-.115-.089-.17-.023-.041-.04-.084-.067-.124-.125-.187-.285-.348-.472-.472-.043-.029-.09-.049-.134-.073-.052-.03-.105-.059-.159-.084-.059-.021-.119-.04-.18-.055-.046-.014-.09-.032-.138-.042-.111-.021-.224-.033-.337-.033H5.537c-.941 0-1.704.762-1.704 1.703 0 .94.763 1.704 1.704 1.704h7.813l-8.995 8.992c-.665.665-.666 1.744 0 2.41.665.665 1.744.665 2.41 0l8.995-8.993v7.814c0 .452.18.885.499 1.204.32.32.753.5 1.205.5.451 0 .885-.18 1.204-.5.32-.319.499-.752.499-1.204V5.667h-.003z" mask="url(#ukl8cmc7xcg)"/>
            </g>
        </g>
        <g filter="url(#hdm5wm4wvch)">
            <g transform="translate(209.5 256)">
                <mask id="5hs9k9o4kcj" fill="#fff">
                    <use xlink:href="#3r735xykoci"/>
                </mask>
                <path fill="#000C0A" fill-rule="nonzero" d="M19.164 5.667v-.038c-.001-.1-.011-.198-.03-.295-.013-.054-.029-.106-.047-.158-.014-.055-.03-.108-.05-.16-.026-.059-.056-.115-.089-.17-.023-.041-.04-.084-.067-.124-.125-.187-.285-.348-.472-.472-.043-.029-.09-.049-.134-.073-.052-.03-.105-.059-.159-.084-.059-.021-.119-.04-.18-.055-.046-.014-.09-.032-.138-.042-.111-.021-.224-.033-.337-.033H5.537c-.941 0-1.704.762-1.704 1.703 0 .94.763 1.704 1.704 1.704h7.813l-8.995 8.992c-.665.665-.666 1.744 0 2.41.665.665 1.744.665 2.41 0l8.995-8.993v7.814c0 .452.18.885.499 1.204.32.32.753.5 1.205.5.451 0 .885-.18 1.204-.5.32-.319.499-.752.499-1.204V5.667h-.003z" mask="url(#5hs9k9o4kcj)"/>
            </g>
        </g>
        <g filter="url(#9i2ei9fl6ck)">
            <g transform="translate(232.5 256)">
                <mask id="vc8js0bsdcm" fill="#fff">
                    <use xlink:href="#m1xubh2zccl"/>
                </mask>
                <path fill="#000C0A" fill-rule="nonzero" d="M19.164 5.667v-.038c-.001-.1-.011-.198-.03-.295-.013-.054-.029-.106-.047-.158-.014-.055-.03-.108-.05-.16-.026-.059-.056-.115-.089-.17-.023-.041-.04-.084-.067-.124-.125-.187-.285-.348-.472-.472-.043-.029-.09-.049-.134-.073-.052-.03-.105-.059-.159-.084-.059-.021-.119-.04-.18-.055-.046-.014-.09-.032-.138-.042-.111-.021-.224-.033-.337-.033H5.537c-.941 0-1.704.762-1.704 1.703 0 .94.763 1.704 1.704 1.704h7.813l-8.995 8.992c-.665.665-.666 1.744 0 2.41.665.665 1.744.665 2.41 0l8.995-8.993v7.814c0 .452.18.885.499 1.204.32.32.753.5 1.205.5.451 0 .885-.18 1.204-.5.32-.319.499-.752.499-1.204V5.667h-.003z" mask="url(#vc8js0bsdcm)"/>
            </g>
        </g>
        <g filter="url(#ddtwj0ov6cn)">
            <g transform="translate(255.5 256)">
                <mask id="6398uq76icp" fill="#fff">
                    <use xlink:href="#pwg2mmsetco"/>
                </mask>
                <path fill="#000C0A" fill-rule="nonzero" d="M19.164 5.667v-.038c-.001-.1-.011-.198-.03-.295-.013-.054-.029-.106-.047-.158-.014-.055-.03-.108-.05-.16-.026-.059-.056-.115-.089-.17-.023-.041-.04-.084-.067-.124-.125-.187-.285-.348-.472-.472-.043-.029-.09-.049-.134-.073-.052-.03-.105-.059-.159-.084-.059-.021-.119-.04-.18-.055-.046-.014-.09-.032-.138-.042-.111-.021-.224-.033-.337-.033H5.537c-.941 0-1.704.762-1.704 1.703 0 .94.763 1.704 1.704 1.704h7.813l-8.995 8.992c-.665.665-.666 1.744 0 2.41.665.665 1.744.665 2.41 0l8.995-8.993v7.814c0 .452.18.885.499 1.204.32.32.753.5 1.205.5.451 0 .885-.18 1.204-.5.32-.319.499-.752.499-1.204V5.667h-.003z" mask="url(#6398uq76icp)"/>
            </g>
        </g>
        <g filter="url(#d68ydu82xcq)">
            <g transform="translate(116.5 117)">
                <mask id="jvz8vnv6pcs" fill="#fff">
                    <use xlink:href="#94chlgw1fcr"/>
                </mask>
                <path fill="#000C0A" fill-rule="nonzero" d="M19.164 5.667v-.038c-.001-.1-.011-.198-.03-.295-.013-.054-.029-.106-.047-.158-.014-.055-.03-.108-.05-.16-.026-.059-.056-.115-.089-.17-.023-.041-.04-.084-.067-.124-.125-.187-.285-.348-.472-.472-.043-.029-.09-.049-.134-.073-.052-.03-.105-.059-.159-.084-.059-.021-.119-.04-.18-.055-.046-.014-.09-.032-.138-.042-.111-.021-.224-.033-.337-.033H5.537c-.941 0-1.704.762-1.704 1.703 0 .94.763 1.704 1.704 1.704h7.813l-8.995 8.992c-.665.665-.666 1.744 0 2.41.665.665 1.744.665 2.41 0l8.995-8.993v7.814c0 .452.18.885.499 1.204.32.32.753.5 1.205.5.451 0 .885-.18 1.204-.5.32-.319.499-.752.499-1.204V5.667h-.003z" mask="url(#jvz8vnv6pcs)"/>
            </g>
        </g>
        <g filter="url(#vdt334lasct)">
            <g transform="translate(116.5 139)">
                <mask id="oge32d1s9cv" fill="#fff">
                    <use xlink:href="#oqakrkka4cu"/>
                </mask>
                <path fill="#000C0A" fill-rule="nonzero" d="M19.164 5.667v-.038c-.001-.1-.011-.198-.03-.295-.013-.054-.029-.106-.047-.158-.014-.055-.03-.108-.05-.16-.026-.059-.056-.115-.089-.17-.023-.041-.04-.084-.067-.124-.125-.187-.285-.348-.472-.472-.043-.029-.09-.049-.134-.073-.052-.03-.105-.059-.159-.084-.059-.021-.119-.04-.18-.055-.046-.014-.09-.032-.138-.042-.111-.021-.224-.033-.337-.033H5.537c-.941 0-1.704.762-1.704 1.703 0 .94.763 1.704 1.704 1.704h7.813l-8.995 8.992c-.665.665-.666 1.744 0 2.41.665.665 1.744.665 2.41 0l8.995-8.993v7.814c0 .452.18.885.499 1.204.32.32.753.5 1.205.5.451 0 .885-.18 1.204-.5.32-.319.499-.752.499-1.204V5.667h-.003z" mask="url(#oge32d1s9cv)"/>
            </g>
        </g>
        <g filter="url(#8iqhevhoocw)">
            <g transform="translate(93.5 139)">
                <mask id="tx1xxpyy3cy" fill="#fff">
                    <use xlink:href="#1e9v07unccx"/>
                </mask>
                <path fill="#000C0A" fill-rule="nonzero" d="M19.164 5.667v-.038c-.001-.1-.011-.198-.03-.295-.013-.054-.029-.106-.047-.158-.014-.055-.03-.108-.05-.16-.026-.059-.056-.115-.089-.17-.023-.041-.04-.084-.067-.124-.125-.187-.285-.348-.472-.472-.043-.029-.09-.049-.134-.073-.052-.03-.105-.059-.159-.084-.059-.021-.119-.04-.18-.055-.046-.014-.09-.032-.138-.042-.111-.021-.224-.033-.337-.033H5.537c-.941 0-1.704.762-1.704 1.703 0 .94.763 1.704 1.704 1.704h7.813l-8.995 8.992c-.665.665-.666 1.744 0 2.41.665.665 1.744.665 2.41 0l8.995-8.993v7.814c0 .452.18.885.499 1.204.32.32.753.5 1.205.5.451 0 .885-.18 1.204-.5.32-.319.499-.752.499-1.204V5.667h-.003z" mask="url(#tx1xxpyy3cy)"/>
            </g>
        </g>
        <g filter="url(#hqefanijpcz)">
            <g transform="translate(69.5 139)">
                <mask id="4gklitzdgcB" fill="#fff">
                    <use xlink:href="#fa9hw31uacA"/>
                </mask>
                <path fill="#000C0A" fill-rule="nonzero" d="M19.164 5.667v-.038c-.001-.1-.011-.198-.03-.295-.013-.054-.029-.106-.047-.158-.014-.055-.03-.108-.05-.16-.026-.059-.056-.115-.089-.17-.023-.041-.04-.084-.067-.124-.125-.187-.285-.348-.472-.472-.043-.029-.09-.049-.134-.073-.052-.03-.105-.059-.159-.084-.059-.021-.119-.04-.18-.055-.046-.014-.09-.032-.138-.042-.111-.021-.224-.033-.337-.033H5.537c-.941 0-1.704.762-1.704 1.703 0 .94.763 1.704 1.704 1.704h7.813l-8.995 8.992c-.665.665-.666 1.744 0 2.41.665.665 1.744.665 2.41 0l8.995-8.993v7.814c0 .452.18.885.499 1.204.32.32.753.5 1.205.5.451 0 .885-.18 1.204-.5.32-.319.499-.752.499-1.204V5.667h-.003z" mask="url(#4gklitzdgcB)"/>
            </g>
        </g>
        <g filter="url(#1sn6zpw0ocC)">
            <g transform="translate(116.5 24)">
                <mask id="ixi7i5i8tcE" fill="#fff">
                    <use xlink:href="#5w80uvykbcD"/>
                </mask>
                <path fill="#000C0A" fill-rule="nonzero" d="M19.164 5.667v-.038c-.001-.1-.011-.198-.03-.295-.013-.054-.029-.106-.047-.158-.014-.055-.03-.108-.05-.16-.026-.059-.056-.115-.089-.17-.023-.041-.04-.084-.067-.124-.125-.187-.285-.348-.472-.472-.043-.029-.09-.049-.134-.073-.052-.03-.105-.059-.159-.084-.059-.021-.119-.04-.18-.055-.046-.014-.09-.032-.138-.042-.111-.021-.224-.033-.337-.033H5.537c-.941 0-1.704.762-1.704 1.703 0 .94.763 1.704 1.704 1.704h7.813l-8.995 8.992c-.665.665-.666 1.744 0 2.41.665.665 1.744.665 2.41 0l8.995-8.993v7.814c0 .452.18.885.499 1.204.32.32.753.5 1.205.5.451 0 .885-.18 1.204-.5.32-.319.499-.752.499-1.204V5.667h-.003z" mask="url(#ixi7i5i8tcE)"/>
            </g>
        </g>
        <g filter="url(#ypq5fi3krcF)">
            <g transform="translate(116.5 232)">
                <mask id="m9ep8d37fcH" fill="#fff">
                    <use xlink:href="#m27chu7stcG"/>
                </mask>
                <path fill="#000C0A" fill-rule="nonzero" d="M19.164 5.667v-.038c-.001-.1-.011-.198-.03-.295-.013-.054-.029-.106-.047-.158-.014-.055-.03-.108-.05-.16-.026-.059-.056-.115-.089-.17-.023-.041-.04-.084-.067-.124-.125-.187-.285-.348-.472-.472-.043-.029-.09-.049-.134-.073-.052-.03-.105-.059-.159-.084-.059-.021-.119-.04-.18-.055-.046-.014-.09-.032-.138-.042-.111-.021-.224-.033-.337-.033H5.537c-.941 0-1.704.762-1.704 1.703 0 .94.763 1.704 1.704 1.704h7.813l-8.995 8.992c-.665.665-.666 1.744 0 2.41.665.665 1.744.665 2.41 0l8.995-8.993v7.814c0 .452.18.885.499 1.204.32.32.753.5 1.205.5.451 0 .885-.18 1.204-.5.32-.319.499-.752.499-1.204V5.667h-.003z" mask="url(#m9ep8d37fcH)"/>
            </g>
        </g>
        <g filter="url(#yftanvsu1cI)">
            <g transform="translate(116.5)">
                <mask id="gdn9jnj5icK" fill="#fff">
                    <use xlink:href="#pvhtrkl27cJ"/>
                </mask>
                <path fill="#000C0A" fill-rule="nonzero" d="M19.164 5.667v-.038c-.001-.1-.011-.198-.03-.295-.013-.054-.029-.106-.047-.158-.014-.055-.03-.108-.05-.16-.026-.059-.056-.115-.089-.17-.023-.041-.04-.084-.067-.124-.125-.187-.285-.348-.472-.472-.043-.029-.09-.049-.134-.073-.052-.03-.105-.059-.159-.084-.059-.021-.119-.04-.18-.055-.046-.014-.09-.032-.138-.042-.111-.021-.224-.033-.337-.033H5.537c-.941 0-1.704.762-1.704 1.703 0 .94.763 1.704 1.704 1.704h7.813l-8.995 8.992c-.665.665-.666 1.744 0 2.41.665.665 1.744.665 2.41 0l8.995-8.993v7.814c0 .452.18.885.499 1.204.32.32.753.5 1.205.5.451 0 .885-.18 1.204-.5.32-.319.499-.752.499-1.204V5.667h-.003z" mask="url(#gdn9jnj5icK)"/>
            </g>
        </g>
        <g filter="url(#vqlr7c9nrcL)">
            <g transform="translate(116.5 210)">
                <mask id="75tnkuo3rcN" fill="#fff">
                    <use xlink:href="#db554vsn2cM"/>
                </mask>
                <path fill="#000C0A" fill-rule="nonzero" d="M19.164 5.667v-.038c-.001-.1-.011-.198-.03-.295-.013-.054-.029-.106-.047-.158-.014-.055-.03-.108-.05-.16-.026-.059-.056-.115-.089-.17-.023-.041-.04-.084-.067-.124-.125-.187-.285-.348-.472-.472-.043-.029-.09-.049-.134-.073-.052-.03-.105-.059-.159-.084-.059-.021-.119-.04-.18-.055-.046-.014-.09-.032-.138-.042-.111-.021-.224-.033-.337-.033H5.537c-.941 0-1.704.762-1.704 1.703 0 .94.763 1.704 1.704 1.704h7.813l-8.995 8.992c-.665.665-.666 1.744 0 2.41.665.665 1.744.665 2.41 0l8.995-8.993v7.814c0 .452.18.885.499 1.204.32.32.753.5 1.205.5.451 0 .885-.18 1.204-.5.32-.319.499-.752.499-1.204V5.667h-.003z" mask="url(#75tnkuo3rcN)"/>
            </g>
        </g>
        <g filter="url(#6h4p0wkbrcO)">
            <g transform="translate(116.5 163)">
                <mask id="rc40mfrw3cQ" fill="#fff">
                    <use xlink:href="#geu7xf3b1cP"/>
                </mask>
                <path fill="#000C0A" fill-rule="nonzero" d="M19.164 5.667v-.038c-.001-.1-.011-.198-.03-.295-.013-.054-.029-.106-.047-.158-.014-.055-.03-.108-.05-.16-.026-.059-.056-.115-.089-.17-.023-.041-.04-.084-.067-.124-.125-.187-.285-.348-.472-.472-.043-.029-.09-.049-.134-.073-.052-.03-.105-.059-.159-.084-.059-.021-.119-.04-.18-.055-.046-.014-.09-.032-.138-.042-.111-.021-.224-.033-.337-.033H5.537c-.941 0-1.704.762-1.704 1.703 0 .94.763 1.704 1.704 1.704h7.813l-8.995 8.992c-.665.665-.666 1.744 0 2.41.665.665 1.744.665 2.41 0l8.995-8.993v7.814c0 .452.18.885.499 1.204.32.32.753.5 1.205.5.451 0 .885-.18 1.204-.5.32-.319.499-.752.499-1.204V5.667h-.003z" mask="url(#rc40mfrw3cQ)"/>
            </g>
        </g>
        <g filter="url(#3q5t1ifpxcR)">
            <g transform="translate(93.5 24)">
                <mask id="6k8m1r46vcT" fill="#fff">
                    <use xlink:href="#ksqcau3ohcS"/>
                </mask>
                <path fill="#000C0A" fill-rule="nonzero" d="M19.164 5.667v-.038c-.001-.1-.011-.198-.03-.295-.013-.054-.029-.106-.047-.158-.014-.055-.03-.108-.05-.16-.026-.059-.056-.115-.089-.17-.023-.041-.04-.084-.067-.124-.125-.187-.285-.348-.472-.472-.043-.029-.09-.049-.134-.073-.052-.03-.105-.059-.159-.084-.059-.021-.119-.04-.18-.055-.046-.014-.09-.032-.138-.042-.111-.021-.224-.033-.337-.033H5.537c-.941 0-1.704.762-1.704 1.703 0 .94.763 1.704 1.704 1.704h7.813l-8.995 8.992c-.665.665-.666 1.744 0 2.41.665.665 1.744.665 2.41 0l8.995-8.993v7.814c0 .452.18.885.499 1.204.32.32.753.5 1.205.5.451 0 .885-.18 1.204-.5.32-.319.499-.752.499-1.204V5.667h-.003z" mask="url(#6k8m1r46vcT)"/>
            </g>
        </g>
        <g filter="url(#0h5am2dj0cU)">
            <g transform="translate(93.5 232)">
                <mask id="d0u2833rtcW" fill="#fff">
                    <use xlink:href="#ss230ep0xcV"/>
                </mask>
                <path fill="#000C0A" fill-rule="nonzero" d="M19.164 5.667v-.038c-.001-.1-.011-.198-.03-.295-.013-.054-.029-.106-.047-.158-.014-.055-.03-.108-.05-.16-.026-.059-.056-.115-.089-.17-.023-.041-.04-.084-.067-.124-.125-.187-.285-.348-.472-.472-.043-.029-.09-.049-.134-.073-.052-.03-.105-.059-.159-.084-.059-.021-.119-.04-.18-.055-.046-.014-.09-.032-.138-.042-.111-.021-.224-.033-.337-.033H5.537c-.941 0-1.704.762-1.704 1.703 0 .94.763 1.704 1.704 1.704h7.813l-8.995 8.992c-.665.665-.666 1.744 0 2.41.665.665 1.744.665 2.41 0l8.995-8.993v7.814c0 .452.18.885.499 1.204.32.32.753.5 1.205.5.451 0 .885-.18 1.204-.5.32-.319.499-.752.499-1.204V5.667h-.003z" mask="url(#d0u2833rtcW)"/>
            </g>
        </g>
        <g filter="url(#idex80x5ycX)">
            <g transform="translate(93.5)">
                <mask id="mce4kml3gcZ" fill="#fff">
                    <use xlink:href="#rpebqv2cdcY"/>
                </mask>
                <path fill="#000C0A" fill-rule="nonzero" d="M19.164 5.667v-.038c-.001-.1-.011-.198-.03-.295-.013-.054-.029-.106-.047-.158-.014-.055-.03-.108-.05-.16-.026-.059-.056-.115-.089-.17-.023-.041-.04-.084-.067-.124-.125-.187-.285-.348-.472-.472-.043-.029-.09-.049-.134-.073-.052-.03-.105-.059-.159-.084-.059-.021-.119-.04-.18-.055-.046-.014-.09-.032-.138-.042-.111-.021-.224-.033-.337-.033H5.537c-.941 0-1.704.762-1.704 1.703 0 .94.763 1.704 1.704 1.704h7.813l-8.995 8.992c-.665.665-.666 1.744 0 2.41.665.665 1.744.665 2.41 0l8.995-8.993v7.814c0 .452.18.885.499 1.204.32.32.753.5 1.205.5.451 0 .885-.18 1.204-.5.32-.319.499-.752.499-1.204V5.667h-.003z" mask="url(#mce4kml3gcZ)"/>
            </g>
        </g>
        <g filter="url(#rspaa194yda)">
            <g transform="translate(93.5 210)">
                <mask id="ujk41oemjdc" fill="#fff">
                    <use xlink:href="#xnmsmaoeddb"/>
                </mask>
                <path fill="#000C0A" fill-rule="nonzero" d="M19.164 5.667v-.038c-.001-.1-.011-.198-.03-.295-.013-.054-.029-.106-.047-.158-.014-.055-.03-.108-.05-.16-.026-.059-.056-.115-.089-.17-.023-.041-.04-.084-.067-.124-.125-.187-.285-.348-.472-.472-.043-.029-.09-.049-.134-.073-.052-.03-.105-.059-.159-.084-.059-.021-.119-.04-.18-.055-.046-.014-.09-.032-.138-.042-.111-.021-.224-.033-.337-.033H5.537c-.941 0-1.704.762-1.704 1.703 0 .94.763 1.704 1.704 1.704h7.813l-8.995 8.992c-.665.665-.666 1.744 0 2.41.665.665 1.744.665 2.41 0l8.995-8.993v7.814c0 .452.18.885.499 1.204.32.32.753.5 1.205.5.451 0 .885-.18 1.204-.5.32-.319.499-.752.499-1.204V5.667h-.003z" mask="url(#ujk41oemjdc)"/>
            </g>
        </g>
        <g filter="url(#1ua1xfmg0dd)">
            <g transform="translate(69.5 210)">
                <mask id="fkw04gbo5df" fill="#fff">
                    <use xlink:href="#66o5vul0cde"/>
                </mask>
                <path fill="#000C0A" fill-rule="nonzero" d="M19.164 5.667v-.038c-.001-.1-.011-.198-.03-.295-.013-.054-.029-.106-.047-.158-.014-.055-.03-.108-.05-.16-.026-.059-.056-.115-.089-.17-.023-.041-.04-.084-.067-.124-.125-.187-.285-.348-.472-.472-.043-.029-.09-.049-.134-.073-.052-.03-.105-.059-.159-.084-.059-.021-.119-.04-.18-.055-.046-.014-.09-.032-.138-.042-.111-.021-.224-.033-.337-.033H5.537c-.941 0-1.704.762-1.704 1.703 0 .94.763 1.704 1.704 1.704h7.813l-8.995 8.992c-.665.665-.666 1.744 0 2.41.665.665 1.744.665 2.41 0l8.995-8.993v7.814c0 .452.18.885.499 1.204.32.32.753.5 1.205.5.451 0 .885-.18 1.204-.5.32-.319.499-.752.499-1.204V5.667h-.003z" mask="url(#fkw04gbo5df)"/>
            </g>
        </g>
        <g filter="url(#y4yvynqcfdg)">
            <g transform="translate(93.5 163)">
                <mask id="lrnsg2evbdi" fill="#fff">
                    <use xlink:href="#ttzfq9uojdh"/>
                </mask>
                <path fill="#000C0A" fill-rule="nonzero" d="M19.164 5.667v-.038c-.001-.1-.011-.198-.03-.295-.013-.054-.029-.106-.047-.158-.014-.055-.03-.108-.05-.16-.026-.059-.056-.115-.089-.17-.023-.041-.04-.084-.067-.124-.125-.187-.285-.348-.472-.472-.043-.029-.09-.049-.134-.073-.052-.03-.105-.059-.159-.084-.059-.021-.119-.04-.18-.055-.046-.014-.09-.032-.138-.042-.111-.021-.224-.033-.337-.033H5.537c-.941 0-1.704.762-1.704 1.703 0 .94.763 1.704 1.704 1.704h7.813l-8.995 8.992c-.665.665-.666 1.744 0 2.41.665.665 1.744.665 2.41 0l8.995-8.993v7.814c0 .452.18.885.499 1.204.32.32.753.5 1.205.5.451 0 .885-.18 1.204-.5.32-.319.499-.752.499-1.204V5.667h-.003z" mask="url(#lrnsg2evbdi)"/>
            </g>
        </g>
        <g filter="url(#ac8kpt6mydj)">
            <g transform="translate(69.5 24)">
                <mask id="4tb127hm4dl" fill="#fff">
                    <use xlink:href="#s2gmu583pdk"/>
                </mask>
                <path fill="#000C0A" fill-rule="nonzero" d="M19.164 5.667v-.038c-.001-.1-.011-.198-.03-.295-.013-.054-.029-.106-.047-.158-.014-.055-.03-.108-.05-.16-.026-.059-.056-.115-.089-.17-.023-.041-.04-.084-.067-.124-.125-.187-.285-.348-.472-.472-.043-.029-.09-.049-.134-.073-.052-.03-.105-.059-.159-.084-.059-.021-.119-.04-.18-.055-.046-.014-.09-.032-.138-.042-.111-.021-.224-.033-.337-.033H5.537c-.941 0-1.704.762-1.704 1.703 0 .94.763 1.704 1.704 1.704h7.813l-8.995 8.992c-.665.665-.666 1.744 0 2.41.665.665 1.744.665 2.41 0l8.995-8.993v7.814c0 .452.18.885.499 1.204.32.32.753.5 1.205.5.451 0 .885-.18 1.204-.5.32-.319.499-.752.499-1.204V5.667h-.003z" mask="url(#4tb127hm4dl)"/>
            </g>
        </g>
        <g filter="url(#on7liq1b1dm)">
            <g transform="translate(69.5 232)">
                <mask id="0uzlx4uevdo" fill="#fff">
                    <use xlink:href="#folbr0utcdn"/>
                </mask>
                <path fill="#000C0A" fill-rule="nonzero" d="M19.164 5.667v-.038c-.001-.1-.011-.198-.03-.295-.013-.054-.029-.106-.047-.158-.014-.055-.03-.108-.05-.16-.026-.059-.056-.115-.089-.17-.023-.041-.04-.084-.067-.124-.125-.187-.285-.348-.472-.472-.043-.029-.09-.049-.134-.073-.052-.03-.105-.059-.159-.084-.059-.021-.119-.04-.18-.055-.046-.014-.09-.032-.138-.042-.111-.021-.224-.033-.337-.033H5.537c-.941 0-1.704.762-1.704 1.703 0 .94.763 1.704 1.704 1.704h7.813l-8.995 8.992c-.665.665-.666 1.744 0 2.41.665.665 1.744.665 2.41 0l8.995-8.993v7.814c0 .452.18.885.499 1.204.32.32.753.5 1.205.5.451 0 .885-.18 1.204-.5.32-.319.499-.752.499-1.204V5.667h-.003z" mask="url(#0uzlx4uevdo)"/>
            </g>
        </g>
        <g filter="url(#pxsvbu605dp)">
            <g transform="translate(46.5 232)">
                <mask id="ivd68jevldr" fill="#fff">
                    <use xlink:href="#t81xi75f5dq"/>
                </mask>
                <path fill="#000C0A" fill-rule="nonzero" d="M19.164 5.667v-.038c-.001-.1-.011-.198-.03-.295-.013-.054-.029-.106-.047-.158-.014-.055-.03-.108-.05-.16-.026-.059-.056-.115-.089-.17-.023-.041-.04-.084-.067-.124-.125-.187-.285-.348-.472-.472-.043-.029-.09-.049-.134-.073-.052-.03-.105-.059-.159-.084-.059-.021-.119-.04-.18-.055-.046-.014-.09-.032-.138-.042-.111-.021-.224-.033-.337-.033H5.537c-.941 0-1.704.762-1.704 1.703 0 .94.763 1.704 1.704 1.704h7.813l-8.995 8.992c-.665.665-.666 1.744 0 2.41.665.665 1.744.665 2.41 0l8.995-8.993v7.814c0 .452.18.885.499 1.204.32.32.753.5 1.205.5.451 0 .885-.18 1.204-.5.32-.319.499-.752.499-1.204V5.667h-.003z" mask="url(#ivd68jevldr)"/>
            </g>
        </g>
        <g filter="url(#l0kho5le5ds)">
            <g transform="translate(23.5 232)">
                <mask id="56yva2sacdu" fill="#fff">
                    <use xlink:href="#cf5vw1qqpdt"/>
                </mask>
                <path fill="#000C0A" fill-rule="nonzero" d="M19.164 5.667v-.038c-.001-.1-.011-.198-.03-.295-.013-.054-.029-.106-.047-.158-.014-.055-.03-.108-.05-.16-.026-.059-.056-.115-.089-.17-.023-.041-.04-.084-.067-.124-.125-.187-.285-.348-.472-.472-.043-.029-.09-.049-.134-.073-.052-.03-.105-.059-.159-.084-.059-.021-.119-.04-.18-.055-.046-.014-.09-.032-.138-.042-.111-.021-.224-.033-.337-.033H5.537c-.941 0-1.704.762-1.704 1.703 0 .94.763 1.704 1.704 1.704h7.813l-8.995 8.992c-.665.665-.666 1.744 0 2.41.665.665 1.744.665 2.41 0l8.995-8.993v7.814c0 .452.18.885.499 1.204.32.32.753.5 1.205.5.451 0 .885-.18 1.204-.5.32-.319.499-.752.499-1.204V5.667h-.003z" mask="url(#56yva2sacdu)"/>
            </g>
        </g>
        <g filter="url(#x1f5bshbudv)">
            <g transform="translate(116.5 70)">
                <mask id="yjq4nl9addx" fill="#fff">
                    <use xlink:href="#akr39dzrpdw"/>
                </mask>
                <path fill="#000C0A" fill-rule="nonzero" d="M19.164 5.667v-.038c-.001-.1-.011-.198-.03-.295-.013-.054-.029-.106-.047-.158-.014-.055-.03-.108-.05-.16-.026-.059-.056-.115-.089-.17-.023-.041-.04-.084-.067-.124-.125-.187-.285-.348-.472-.472-.043-.029-.09-.049-.134-.073-.052-.03-.105-.059-.159-.084-.059-.021-.119-.04-.18-.055-.046-.014-.09-.032-.138-.042-.111-.021-.224-.033-.337-.033H5.537c-.941 0-1.704.762-1.704 1.703 0 .94.763 1.704 1.704 1.704h7.813l-8.995 8.992c-.665.665-.666 1.744 0 2.41.665.665 1.744.665 2.41 0l8.995-8.993v7.814c0 .452.18.885.499 1.204.32.32.753.5 1.205.5.451 0 .885-.18 1.204-.5.32-.319.499-.752.499-1.204V5.667h-.003z" mask="url(#yjq4nl9addx)"/>
            </g>
        </g>
        <g filter="url(#b3fgn8d8qdy)">
            <g transform="translate(116.5 93)">
                <mask id="t98nx57hgdA" fill="#fff">
                    <use xlink:href="#9y912a9dtdz"/>
                </mask>
                <path fill="#000C0A" fill-rule="nonzero" d="M19.164 5.667v-.038c-.001-.1-.011-.198-.03-.295-.013-.054-.029-.106-.047-.158-.014-.055-.03-.108-.05-.16-.026-.059-.056-.115-.089-.17-.023-.041-.04-.084-.067-.124-.125-.187-.285-.348-.472-.472-.043-.029-.09-.049-.134-.073-.052-.03-.105-.059-.159-.084-.059-.021-.119-.04-.18-.055-.046-.014-.09-.032-.138-.042-.111-.021-.224-.033-.337-.033H5.537c-.941 0-1.704.762-1.704 1.703 0 .94.763 1.704 1.704 1.704h7.813l-8.995 8.992c-.665.665-.666 1.744 0 2.41.665.665 1.744.665 2.41 0l8.995-8.993v7.814c0 .452.18.885.499 1.204.32.32.753.5 1.205.5.451 0 .885-.18 1.204-.5.32-.319.499-.752.499-1.204V5.667h-.003z" mask="url(#t98nx57hgdA)"/>
            </g>
        </g>
        <g filter="url(#wf7mu1sggdB)">
            <g transform="translate(116.5 46)">
                <mask id="yh4u34gl2dD" fill="#fff">
                    <use xlink:href="#htvji6l7ddC"/>
                </mask>
                <path fill="#000C0A" fill-rule="nonzero" d="M19.164 5.667v-.038c-.001-.1-.011-.198-.03-.295-.013-.054-.029-.106-.047-.158-.014-.055-.03-.108-.05-.16-.026-.059-.056-.115-.089-.17-.023-.041-.04-.084-.067-.124-.125-.187-.285-.348-.472-.472-.043-.029-.09-.049-.134-.073-.052-.03-.105-.059-.159-.084-.059-.021-.119-.04-.18-.055-.046-.014-.09-.032-.138-.042-.111-.021-.224-.033-.337-.033H5.537c-.941 0-1.704.762-1.704 1.703 0 .94.763 1.704 1.704 1.704h7.813l-8.995 8.992c-.665.665-.666 1.744 0 2.41.665.665 1.744.665 2.41 0l8.995-8.993v7.814c0 .452.18.885.499 1.204.32.32.753.5 1.205.5.451 0 .885-.18 1.204-.5.32-.319.499-.752.499-1.204V5.667h-.003z" mask="url(#yh4u34gl2dD)"/>
            </g>
        </g>
        <g filter="url(#f2g5hkrdmdE)">
            <g transform="translate(116.5 256)">
                <mask id="fvfua9y55dG" fill="#fff">
                    <use xlink:href="#vqxqrhulwdF"/>
                </mask>
                <path fill="#000C0A" fill-rule="nonzero" d="M19.164 5.667v-.038c-.001-.1-.011-.198-.03-.295-.013-.054-.029-.106-.047-.158-.014-.055-.03-.108-.05-.16-.026-.059-.056-.115-.089-.17-.023-.041-.04-.084-.067-.124-.125-.187-.285-.348-.472-.472-.043-.029-.09-.049-.134-.073-.052-.03-.105-.059-.159-.084-.059-.021-.119-.04-.18-.055-.046-.014-.09-.032-.138-.042-.111-.021-.224-.033-.337-.033H5.537c-.941 0-1.704.762-1.704 1.703 0 .94.763 1.704 1.704 1.704h7.813l-8.995 8.992c-.665.665-.666 1.744 0 2.41.665.665 1.744.665 2.41 0l8.995-8.993v7.814c0 .452.18.885.499 1.204.32.32.753.5 1.205.5.451 0 .885-.18 1.204-.5.32-.319.499-.752.499-1.204V5.667h-.003z" mask="url(#fvfua9y55dG)"/>
            </g>
        </g>
    </g>
</svg>
