<svg xmlns="http://www.w3.org/2000/svg" width="146" height="67" viewBox="0 0 146 67">
    <g fill="none" fill-rule="evenodd" stroke="#000" stroke-linecap="round">
        <path d="M0 388.417L26.833 361.583M0 361.583L26.833 361.583M26.833 361.583L26.833 388.417M39 388.417L65.833 361.583M39 361.583L65.833 361.583M65.833 361.583L65.833 388.417M78 388.417L104.833 361.583M78 361.583L104.833 361.583M104.833 361.583L104.833 388.417M78 349.417L104.833 322.583M78 322.583L104.833 322.583M104.833 322.583L104.833 349.417M117 388.417L143.833 361.583M117 361.583L143.833 361.583M143.833 361.583L143.833 388.417M117 349.417L143.833 322.583M117 322.583L143.833 322.583M143.833 322.583L143.833 349.417" transform="translate(1 -322)"/>
    </g>
</svg>
