<svg xmlns="http://www.w3.org/2000/svg" width="44" height="44" viewBox="0 0 44 44">
    <defs>
        <filter id="f6qtfeikfa">
            <feColorMatrix in="SourceGraphic" values="0 0 0 0 0.000000 0 0 0 0 0.200000 0 0 0 0 0.196078 0 0 0 1.000000 0"/>
        </filter>
        <filter id="0v16qyt4ib">
            <feColorMatrix in="SourceGraphic" values="0 0 0 0 0.000000 0 0 0 0 0.047059 0 0 0 0 0.039216 0 0 0 1.000000 0"/>
        </filter>
    </defs>
    <g fill="none" fill-rule="evenodd">
        <g filter="url(#f6qtfeikfa)">
            <g filter="url(#0v16qyt4ib)" transform="translate(8 8)">
                <g fill="#000" fill-rule="nonzero">
                    <path d="M11.85 12.124V.798H.394v15.833h6.554c.067.15.145.295.233.434v5.741l2.917-1.458 2.916 1.458v-5.741c.534-.8.712-1.787.49-2.724-.22-.937-.82-1.74-1.656-2.217h.002zm-1.75 5.347c-1.289 0-2.333-1.045-2.333-2.334 0-1.288 1.044-2.333 2.333-2.333 1.288 0 2.333 1.045 2.333 2.333 0 1.29-1.045 2.334-2.333 2.334zM1.56 15.464v-13.5h9.122v9.732c-.192-.036-.387-.055-.583-.059-1.933 0-3.5 1.568-3.5 3.5 0 .117.023.217.034.327H1.56zm8.539 4.58l-1.75.875v-2.77c1.076.651 2.424.651 3.5 0v2.77l-1.75-.875z" transform="translate(7.002 2.868)"/>
                    <path d="M3.206 3.59H9.039V4.757H3.206zM3.206 5.923H7.872999999999999V7.09H3.206z" transform="translate(7.002 2.868)"/>
                </g>
            </g>
        </g>
    </g>
</svg>
