<svg xmlns="http://www.w3.org/2000/svg" width="44" height="44" viewBox="0 0 44 44">
    <defs>
        <filter id="avt6u10aba">
            <feColorMatrix in="SourceGraphic" values="0 0 0 0 0.917686 0 0 0 0 0.401884 0 0 0 0 0.143983 0 0 0 1.000000 0"/>
        </filter>
        <filter id="k3tn3njvwb">
            <feColorMatrix in="SourceGraphic" values="0 0 0 0 0.000000 0 0 0 0 0.047059 0 0 0 0 0.039216 0 0 0 1.000000 0"/>
        </filter>
    </defs>
    <g fill="none" fill-rule="evenodd">
        <g filter="url(#avt6u10aba)">
            <g filter="url(#k3tn3njvwb)" transform="translate(8 8)">
                <path fill="#000" fill-rule="nonzero" d="M13.26 7.155c-1.046.949-1.652 2.287-1.677 3.699.056 1.284.534 2.514 1.359 3.5l-1.58 1.576c-.875.88-1.553 1.935-1.989 3.096-.373-.878-.913-1.676-1.588-2.35L6.6 15.49l-.825.825L6.96 17.5c1.184 1.178 1.848 2.78 1.842 4.45v.066c0 .041-.005.08-.005.117l.014 3.607h1.166l-.008-2.156V22.01c.03-1.971.825-3.854 2.217-5.25l1.584-1.582c.573.449 1.217.8 1.904 1.038.513.174 1.052.265 1.594.268 1.395-.03 2.717-.633 3.654-1.667 3.5-3.5 3.595-10.33 3.598-10.617v-.583h-.584c-.27-.012-7.114-.024-10.677 3.538zm6.837 6.837c-1.43 1.594-3.874 1.75-5.495.35l4.083-4.083-.824-.825-4.084 4.083c-.618-.765-.977-1.707-1.024-2.69.035-1.094.518-2.126 1.336-2.855 2.634-2.636 7.534-3.103 9.24-3.186-.11 1.715-.636 6.61-3.232 9.206z"/>
            </g>
        </g>
    </g>
</svg>
