<svg xmlns="http://www.w3.org/2000/svg" width="108" height="118" viewBox="0 0 108 118">
    <defs>
        <filter id="mx52bsi29a">
            <feColorMatrix in="SourceGraphic" values="0 0 0 0 0.000000 0 0 0 0 0.000000 0 0 0 0 0.000000 0 0 0 1.000000 0"/>
        </filter>
        <filter id="mhkdtdk37b">
            <feColorMatrix in="SourceGraphic" values="0 0 0 0 0.000000 0 0 0 0 0.047059 0 0 0 0 0.039216 0 0 0 1.000000 0"/>
        </filter>
    </defs>
    <g fill="none" fill-rule="evenodd" filter="url(#mx52bsi29a)" transform="translate(-103 -30)">
        <g filter="url(#mhkdtdk37b)" transform="translate(103.487 30)">
            <g>
                <path fill="#1D1D1B" fill-rule="nonzero" d="M48.32 43.35c-.107-1.33-.385-2.636-.826-3.879l17.54-19.318-3.16-3.476-16.688 18.384c-3.173-4.114-8.188-5.89-12.943-4.587l-1.46.393c-3.555.94-6.582 3.497-8.33 7.035-1.747 3.538-2.052 7.726-.837 11.525l-.116-.133L2.915 69.763l3.155 3.476L23.36 54.2l6.397 16.466 3.833 12.97-9.48 5.9 2.196 4.273 12.654-7.896-4.245-14.367 12.747-3.441 8.378 3.19v15.655h4.463V67.776L49.69 63.735 48.32 43.35zm-15.176 23.6l-7.141-18.418c-.99-2.546-.913-5.444.212-7.922 1.125-2.477 3.182-4.284 5.626-4.94l1.46-.393c.664-.177 1.346-.268 2.03-.27 4.476.011 8.19 3.815 8.525 8.732l1.339 19.971-12.05 3.24zM21.093 21.186c.332 1.504 1.193 2.8 2.394 3.605 1.2.804 2.642 1.05 4.007.682l5.427-1.475c1.365-.365 2.543-1.314 3.273-2.636.73-1.323.952-2.91.619-4.414L34.21 5.197c-.58-2.612-2.7-4.453-5.142-4.46-.424.005-.846.063-1.258.173l-5.432 1.475c-2.84.768-4.58 3.925-3.888 7.055l2.602 11.746zm2.348-14.027l5.423-1.475c.067-.018.136-.026.205-.025.382.006.712.295.804.703l2.606 11.751c.053.236.018.486-.098.693-.113.212-.3.364-.518.418L26.235 20.7c-.383-.003-.716-.293-.808-.703l-2.602-11.75c-.093-.486.18-.966.616-1.087z" transform="translate(17.862 12.085)"/>
            </g>
        </g>
    </g>
</svg>
