<svg xmlns="http://www.w3.org/2000/svg" width="70" height="70" viewBox="0 0 70 70">
    <g fill="none" fill-rule="evenodd">
        <circle cx="35" cy="35" r="35" fill="#E5E6E6"/>
        <g>
            <path d="M0 0L24 0 24 24 0 24z" transform="translate(23 23)"/>
            <path fill="#000" fill-rule="nonzero" d="M19 10h1c.552 0 1 .448 1 1v10c0 .552-.448 1-1 1H4c-.552 0-1-.448-1-1V11c0-.552.448-1 1-1h1V9c0-2.5 1.334-4.812 3.5-6.062s4.834-1.25 7 0C17.666 4.188 19 6.499 19 9v1zm-2 0V9c0-2.761-2.239-5-5-5S7 6.239 7 9v1h10zm-6 4v4h2v-4h-2z" transform="translate(23 23)"/>
        </g>
    </g>
</svg>
