<svg id="logo" xmlns="http://www.w3.org/2000/svg" viewBox="0 0 144 24"><path d="M12.3,0a12.05,12.05,0,0,1,9.81,5.09l-4,3.27A6.84,6.84,0,0,0,12.3,5.09,6.75,6.75,0,0,0,5.62,12a6.75,6.75,0,0,0,6.68,6.91,6.84,6.84,0,0,0,5.81-3.27l4,3.27A12,12,0,1,1,12.3,0Z"/><path d="M26.79.26h5.29v9.2h9.39V.26h5.29V23.74H41.47V14.55H32.08v9.19H26.79Z"/><path d="M50.45,23.74H56l1.72-3.64h8.59L68,23.74h5.55L62,0Zm9.29-7.94L62,10.94l2.29,4.86Z"/><path d="M97.37,0V23.74H92.08V11.47L77.27,24V.26h5.29V12.53Z"/><path d="M114.66,0a12.06,12.06,0,0,1,9.82,5.09l-4,3.27a6.84,6.84,0,0,0-5.82-3.27A6.75,6.75,0,0,0,108,12a6.75,6.75,0,0,0,6.67,6.91,6.84,6.84,0,0,0,5.82-3.27l4,3.27A12,12,0,1,1,114.66,0Z"/><path d="M129.16.26H143.7V5.49h-9.25v4h7.27v5.09h-7.27v4h9.25v5.23H129.16Z"/></svg>