<svg xmlns="http://www.w3.org/2000/svg" width="71" height="44" viewBox="0 0 71 44">
    <defs>
        <filter id="f7egnvx76a">
            <feColorMatrix in="SourceGraphic" values="0 0 0 0 0.956918 0 0 0 0 0.956918 0 0 0 0 0.956918 0 0 0 1.000000 0"/>
        </filter>
        <filter id="q7zfbik9ab">
            <feColorMatrix in="SourceGraphic" values="0 0 0 0 0.956918 0 0 0 0 0.956918 0 0 0 0 0.956918 0 0 0 1.000000 0"/>
        </filter>
    </defs>
    <g fill="none" fill-rule="evenodd">
        <path fill="#00E5FF" fill-rule="nonzero" d="M64.76 2.093c0-.028-.002-.055-.003-.083-.002-.037-.002-.073-.006-.11-.003-.036-.01-.078-.017-.117-.004-.025-.006-.05-.011-.075-.008-.04-.019-.08-.03-.119-.005-.023-.01-.046-.017-.069-.012-.038-.026-.074-.039-.11-.009-.025-.017-.05-.027-.073-.014-.035-.03-.068-.046-.101l-.037-.076c-.017-.032-.036-.063-.055-.094l-.045-.073c-.023-.035-.049-.067-.074-.1-.014-.02-.027-.038-.042-.056-.083-.102-.177-.195-.278-.279-.021-.017-.044-.032-.066-.049-.029-.022-.058-.045-.09-.066L63.79.39c-.03-.017-.053-.033-.08-.048L63.616.3c-.03-.016-.055-.027-.084-.04L63.44.226c-.032-.01-.058-.022-.09-.03-.03-.01-.066-.018-.1-.026-.029-.007-.058-.016-.087-.022-.041-.008-.084-.013-.125-.02L62.97.119c-.067-.006-.135-.01-.202-.01H48.867c-1.096 0-1.986.889-1.986 1.984 0 .526.21 1.031.582 1.403.372.372.878.581 1.404.581h9.111L47.491 14.55c-.373.372-.582.877-.582 1.403 0 .527.21 1.031.582 1.403.775.775 2.033.775 2.808 0L60.787 6.882v9.101c0 1.096.89 1.984 1.987 1.984s1.986-.888 1.986-1.984V2.093z" transform="translate(0 .29)"/>
        <g filter="url(#f7egnvx76a)" transform="translate(0 .29)">
            <g transform="translate(.001 -.29)">
                <rect width="3.973" height="17.859" x="45.292" y="25.4" fill="#000C0A" fill-rule="nonzero" rx="1.987"/>
                <path fill="#000C0A" fill-rule="nonzero" d="M32.777 28.975c2.962 0 5.364 2.399 5.364 5.358 0 2.959-2.402 5.357-5.364 5.357-2.962 0-5.363-2.398-5.363-5.357.003-2.958 2.402-5.354 5.363-5.358m0-3.969c-5.156 0-9.337 4.176-9.337 9.327 0 5.15 4.18 9.326 9.337 9.326s9.337-4.176 9.337-9.326c0-5.151-4.18-9.327-9.337-9.327zM70.72 33.96l-.015-.208c-.382-4.776-4.135-8.523-8.709-8.523-4.504 0-8.211 3.635-8.687 8.306-.035.139-.053.281-.053.425 0 .062.003.124.01.185-.006.136-.01.273-.01.41 0 5.15 3.912 9.326 8.74 9.326 3.753 0 5.883-1.154 7.367-2.799.373-.409.53-.97.422-1.514-.108-.543-.468-1.002-.97-1.238l-.07-.033c-.715-.325-1.56-.13-2.057.477-.731.869-1.95 1.536-4.69 1.536-2.8 0-4.37-1.73-4.701-4.564h11.635c.987 0 1.787-.8 1.787-1.786zm-8.724-5.16c2.586 0 3.92 1.456 4.465 3.374h-8.936c.596-2.121 2.088-3.373 4.472-3.373zM41.319.4c-.855.001-1.614.548-1.884 1.359C37.953.588 36.01.004 33.77.004c-5.157 0-8.74 4.176-8.74 9.326s3.583 9.327 8.74 9.327c2.24 0 4.183-.584 5.665-1.755.308.923 1.24 1.486 2.202 1.33.96-.155 1.667-.984 1.668-1.957V2.385c0-1.096-.89-1.984-1.986-1.984zm-7.35 14.288c-2.958 0-4.967-2.403-4.967-5.358 0-2.955 2.01-5.357 4.966-5.357 1.432-.032 2.815.523 3.828 1.534C38.808 6.52 39.363 7.9 39.332 9.33c0 3.36-2.406 5.358-5.364 5.358zM21.847 5.953C21.77 2.515 19.978 0 16.19 0c-1.61 0-3.124.885-4.355 2.157C10.921.817 9.41 0 7.251 0c-1.27 0-2.479.55-3.536 1.406C3.272.62 2.355.232 1.481.462.608.69 0 1.479 0 2.38v13.89c0 1.096.89 1.984 1.987 1.984s1.986-.888 1.986-1.984V5.316c.467-1.012 1.492-1.65 2.608-1.624 1.65 0 2.357 1.124 2.357 2.492V16.27c0 1.096.89 1.985 1.987 1.985s1.987-.889 1.987-1.985V5.316c.467-1.012 1.492-1.65 2.608-1.624 1.65 0 2.357 1.124 2.357 2.492V16.27c0 1.096.89 1.985 1.986 1.985 1.098 0 1.987-.889 1.987-1.985V5.953h-.003z"/>
                <g filter="url(#q7zfbik9ab)">
                    <path fill="#FFF" fill-rule="nonzero" d="M12.744 43.262h-.042c-.752-.016-1.43-.455-1.753-1.134l-6.586-13.89c-.313-.643-.256-1.403.148-1.991.404-.589 1.094-.915 1.806-.855.712.06 1.337.498 1.636 1.146l4.885 10.302 5.468-10.377c.51-.97 1.712-1.342 2.683-.832.97.51 1.344 1.71.833 2.68l-7.32 13.89c-.343.653-1.02 1.061-1.758 1.061z"/>
                </g>
            </g>
        </g>
    </g>
</svg>
