<?xml version="1.0" encoding="UTF-8"?>
<svg width="111px" height="49px" viewBox="0 0 111 49" version="1.1" xmlns="http://www.w3.org/2000/svg" xmlns:xlink="http://www.w3.org/1999/xlink">
    <title>mv-beta-lp_logo</title>
    <defs>
        <filter id="filter-1">
            <feColorMatrix in="SourceGraphic" type="matrix" values="0 0 0 0 0.956918 0 0 0 0 0.956918 0 0 0 0 0.956918 0 0 0 1.000000 0"></feColorMatrix>
        </filter>
        <filter id="filter-2">
            <feColorMatrix in="SourceGraphic" type="matrix" values="0 0 0 0 0.956918 0 0 0 0 0.956918 0 0 0 0 0.956918 0 0 0 1.000000 0"></feColorMatrix>
        </filter>
    </defs>
    <g id="Landing-Page" stroke="none" stroke-width="1" fill="none" fill-rule="evenodd">
        <g transform="translate(-30.000000, -26.000000)" id="Group-11">
            <g id="mv-beta-lp_logo" transform="translate(30.000000, 26.000000)">
                <g id="logo" transform="translate(0.000000, 4.000000)">
                    <path d="M64.7606939,2.38294737 C64.7606939,2.354 64.7575061,2.32765789 64.7566367,2.29957895 C64.7551878,2.26281579 64.7546082,2.22605263 64.7511306,2.18957895 C64.7476531,2.15310526 64.7401184,2.11113158 64.7340327,2.07234211 C64.7302653,2.04744737 64.7276571,2.02255263 64.7227306,1.99794737 C64.7146163,1.95742105 64.7041837,1.91834211 64.693751,1.87897368 C64.6876653,1.85581579 64.6827388,1.83236842 64.6757837,1.8095 C64.6641918,1.77186842 64.6502816,1.73539474 64.636951,1.69863158 C64.6282571,1.67431579 64.6201429,1.64971053 64.6102898,1.62597368 C64.5960898,1.59152632 64.5798612,1.55881579 64.5636327,1.52523684 C64.5514612,1.50005263 64.540449,1.47457895 64.5271184,1.44939474 C64.5100204,1.41726316 64.4906041,1.38657895 64.4717673,1.35560526 C64.4569878,1.33128947 64.4427878,1.30610526 64.4271388,1.28236842 C64.4039551,1.24763158 64.3784531,1.21521053 64.3532408,1.18192105 C64.3393306,1.16339474 64.3262898,1.14428947 64.3112204,1.12605263 C64.2277798,1.02439615 64.1344962,0.931216208 64.0327265,0.847868421 C64.0115714,0.8305 63.9889673,0.815447368 63.9672327,0.798947368 C63.9382531,0.776368421 63.9092735,0.753210526 63.8768163,0.732368421 C63.8443592,0.711526316 63.8188571,0.697631579 63.7898776,0.680552632 C63.760898,0.663473684 63.7368449,0.647552632 63.7093143,0.632789474 C63.6817837,0.618026316 63.6481673,0.603842105 63.6171592,0.588210526 C63.586151,0.572578947 63.562098,0.561289474 63.5334082,0.549421053 C63.5047184,0.537552632 63.471102,0.526263158 63.4395143,0.514973684 C63.4079265,0.503684211 63.3815551,0.492973684 63.3505469,0.483710526 C63.3195388,0.474447368 63.2838939,0.466342105 63.2502776,0.458236842 C63.221298,0.451 63.1923184,0.442605263 63.1633388,0.436815789 C63.1216082,0.428421053 63.079298,0.423210526 63.0375673,0.417421053 C63.0155429,0.414526316 62.9938082,0.410184211 62.9714939,0.407868421 C62.9040883,0.40111769 62.8363799,0.397832653 62.7686367,0.398018229 L48.8674163,0.398018229 C47.7705946,0.398018229 46.8814449,1.28618733 46.8814449,2.38178947 L46.8814449,2.38178947 C46.8814449,2.90796633 47.0905698,3.41261862 47.46302,3.78470899 C47.8354702,4.15679936 48.3406537,4.36584211 48.8674163,4.36584211 L57.9780204,4.36584211 L47.4908857,14.8387105 C47.1183026,15.2108041 46.9089812,15.7155165 46.9089812,16.2417895 C46.9089812,16.7680625 47.1183026,17.2727748 47.4908857,17.6448684 L47.4908857,17.6448684 C48.2664357,18.4194593 49.523748,18.4194593 50.299298,17.6448684 L60.787302,7.17113158 L60.787302,16.2724737 C60.787302,17.3682357 61.6765815,18.2565263 62.7735633,18.2565263 L62.7735633,18.2565263 C63.870545,18.2565263 64.7598245,17.3682357 64.7598245,16.2724737 L64.7598245,2.38294737 L64.7606939,2.38294737 Z" id="Tracé_7" fill="#00E5FF" fill-rule="nonzero"></path>
                    <g filter="url(#filter-1)" id="Group">
                        <g transform="translate(0.001159, 0.000000)">
                            <rect id="Rectangle_4" fill="#000C0A" fill-rule="nonzero" x="45.2924941" y="25.4001579" width="3.97310204" height="17.8587895" rx="1.98655102"></rect>
                            <path d="M32.7770778,28.9751579 C35.7392807,28.9751579 38.1406206,31.3738277 38.1406206,34.3327368 C38.1406206,37.291646 35.7392807,39.6903158 32.7770778,39.6903158 C29.8148749,39.6903158 27.4135349,37.291646 27.4135349,34.3327368 C27.4168887,31.3752164 29.8162652,28.9785079 32.7770778,28.9751579 M32.7770778,25.0064737 C27.6205912,25.0064737 23.4404329,29.1819839 23.4404329,34.3327368 C23.4404329,39.4834898 27.6205912,43.659 32.7770778,43.659 C37.9335644,43.659 42.1137227,39.4834898 42.1137227,34.3327368 C42.1137227,29.1819839 37.9335644,25.0064737 32.7770778,25.0064737 L32.7770778,25.0064737 Z" id="Tracé_8" fill="#000C0A" fill-rule="nonzero"></path>
                            <path d="M70.719188,33.9598947 L70.719188,33.9598947 C70.7151309,33.8904211 70.7103975,33.8212368 70.704988,33.7523421 C70.3233268,28.9760263 66.56989,25.2287895 61.9963309,25.2287895 C57.4920329,25.2287895 53.7849635,28.8642895 53.308539,33.5346579 C53.2738691,33.6736709 53.2560637,33.8163446 53.2555064,33.9596053 L53.2555064,33.9596053 C53.2555064,34.0216735 53.2587673,34.0836991 53.2650696,34.1454474 C53.2595635,34.2815 53.2555064,34.4175526 53.2555064,34.5550526 L53.2555064,34.5550526 C53.2555064,39.7059474 57.1677513,43.8813158 61.9963309,43.8813158 C65.7486084,43.8813158 67.879188,42.7266053 69.3629431,41.0823947 C69.7363141,40.6732626 69.892934,40.1113003 69.7849229,39.5683043 C69.6769118,39.0253082 69.3171125,38.5658421 68.8155186,38.3303684 L68.7450982,38.2973684 C68.0303853,37.9716621 67.1857162,38.1673837 66.6875472,38.7741316 C65.9569717,39.6425526 64.7375104,40.3097895 61.99749,40.3097895 C59.1971921,40.3097895 57.6276574,38.5807632 57.2967104,35.7459474 L68.9320166,35.7459474 C69.919251,35.7456277 70.719188,34.9460315 70.719188,33.9598947 L70.719188,33.9598947 Z M61.9963309,28.8006053 C64.5816002,28.8006053 65.91669,30.2555 66.460637,32.1738421 L57.5247798,32.1738421 C58.1206002,30.0528684 59.6130492,28.8006053 61.9969104,28.8006053 L61.9963309,28.8006053 Z" id="Tracé_9" fill="#000C0A" fill-rule="nonzero"></path>
                            <path d="M41.3185227,0.400921053 C40.4635257,0.401256914 39.7047103,0.948162617 39.4348492,1.75855263 C37.9531227,0.587631579 36.0100411,0.00405263158 33.7699186,0.00405263158 C28.61329,0.00405263158 25.0290941,4.17971053 25.0290941,9.33031579 C25.0290941,14.4809211 28.61329,18.6565789 33.7699186,18.6565789 C36.0100411,18.6565789 37.9531227,18.073 39.4348492,16.9020789 C39.7429324,17.8248383 40.6753816,18.3883392 41.636636,18.2326703 C42.5978904,18.0770015 43.3043453,17.2480908 43.3047839,16.2753684 L43.3047839,2.38526316 C43.3047839,1.28945431 42.4155513,0.401080908 41.3185227,0.400921053 L41.3185227,0.400921053 Z M33.9684288,14.6878947 C31.0107717,14.6878947 29.0021962,12.2852632 29.0021962,9.33031579 C29.0021962,6.37536842 31.0110615,3.97273684 33.9684288,3.97273684 C35.4003047,3.94143807 36.782824,4.49583912 37.7955556,5.50744456 C38.8082871,6.51905 39.3633053,7.90003207 39.3319717,9.33031579 C39.3319717,12.6902368 36.926086,14.6878947 33.9684288,14.6878947 L33.9684288,14.6878947 Z" id="Tracé_10" fill="#000C0A" fill-rule="nonzero"></path>
                            <path d="M21.8468451,5.95302632 C21.7706288,2.51494737 19.9782411,0 16.1903186,0 C14.5790533,0 13.065739,0.885210526 11.8352655,2.15715789 C10.9206696,0.817763158 9.4102533,0 7.25098391,0 C5.9810982,0 4.77206963,0.55 3.71547371,1.40597368 C3.27219675,0.620462256 2.35426597,0.232466841 1.4811722,0.461568324 C0.608078423,0.690669806 -0.000439860838,1.47920838 0,2.38092105 L0,16.2710263 C0,17.3669482 0.889409426,18.2553684 1.98655126,18.2553684 C3.08369309,18.2553684 3.97310228,17.3669482 3.97310228,16.2710263 L3.97310228,5.31618421 C4.44037212,4.30362213 5.46538245,3.6652957 6.58126554,3.69194737 C8.23078391,3.69194737 8.93846554,4.81597368 8.93846554,6.18373684 L8.93846554,16.2713158 C8.93846554,17.3672377 9.82787473,18.2556579 10.9250166,18.2556579 C12.0221584,18.2556579 12.9115676,17.3672377 12.9115676,16.2713158 L12.9115676,5.31618421 C13.3788374,4.30362213 14.4038478,3.6652957 15.5197309,3.69194737 C17.1692492,3.69194737 17.8769309,4.81597368 17.8769309,6.18373684 L17.8769309,16.2713158 C17.8769309,17.3672377 18.76634,18.2556579 19.8634819,18.2556579 C20.9606237,18.2556579 21.8500329,17.3672377 21.8500329,16.2713158 L21.8500329,5.95302632 L21.8468451,5.95302632 Z" id="Tracé_11" fill="#000C0A" fill-rule="nonzero"></path>
                            <g filter="url(#filter-2)" id="Groupe_4">
                                <g transform="translate(3.880657, 25.113579)">
                                    <path d="M8.86369796,18.1485526 L8.82167755,18.1485526 C8.06938471,18.1326894 7.3906336,17.6936167 7.06841224,17.0143947 L0.482220408,3.12371053 C0.169622341,2.4818305 0.226242383,1.72170265 0.630496024,1.13310045 C1.03474967,0.544498247 1.7243388,0.218129111 2.4363805,0.278410421 C3.14842219,0.338691731 3.77318621,0.776333746 4.07250204,1.4245 L8.95759184,11.7262895 L14.4248816,1.34981579 C14.9358409,0.379952974 16.1371595,0.00747750632 17.108102,0.517868529 C18.0790445,1.02825955 18.4519346,2.22824238 17.9409755,3.19810526 L10.6218898,17.0882105 C10.2783336,17.7402826 9.60138078,18.1485526 8.86369796,18.1485526 Z" id="Tracé_12" fill="#FFFFFF" fill-rule="nonzero"></path>
                                </g>
                            </g>
                        </g>
                    </g>
                </g>
                <text id="beta" font-family="ProximaSoft-Bold, Proxima Soft" font-size="14" font-weight="bold" fill="#FFFFFF">
                    <tspan x="75" y="14">BETA</tspan>
                </text>
            </g>
        </g>
    </g>
</svg>