<?xml version="1.0" encoding="UTF-8"?>
<svg width="24px" height="24px" viewBox="0 0 24 24" version="1.1" xmlns="http://www.w3.org/2000/svg" xmlns:xlink="http://www.w3.org/1999/xlink">
    <title>Group</title>
    <g id="MVP" stroke="none" stroke-width="1" fill="none" fill-rule="evenodd">
        <g id="Dashboard-etape-3" transform="translate(-336.000000, -88.000000)">
            <g id="Group" transform="translate(336.000000, 88.000000)">
                <polygon id="Path" points="0 0 24 0 24 24 0 24"></polygon>
                <path d="M18.537,19.567 C16.7224409,21.1393396 14.4010134,22.0033496 12,22 C6.477,22 2,17.523 2,12 C2,6.477 6.477,2 12,2 C17.523,2 22,6.477 22,12 C22,14.136 21.33,16.116 20.19,17.74 L17,12 L20,12 C19.9996878,8.19883866 17.3246624,4.92274779 13.6003323,4.16235763 C9.87600225,3.40196748 6.13085202,5.36726197 4.64052344,8.86408172 C3.15019486,12.3609015 4.32624644,16.4235897 7.45408144,18.5835609 C10.5819164,20.7435322 14.7977742,20.4043042 17.54,17.772 L18.537,19.567 Z" id="Path" fill="#7F8584" fill-rule="nonzero"></path>
            </g>
        </g>
    </g>
</svg>