<svg xmlns="http://www.w3.org/2000/svg" width="19" height="25" viewBox="0 0 19 25">
    <g fill="#EA25AD">
        <path d="M12.63 10.287c-.027-.316-.1-.626-.216-.921L17 4.782l-.826-.825L11.81 8.32c-.83-.976-2.14-1.397-3.383-1.088l-.382.093c-.929.224-1.72.83-2.177 1.67-.457.84-.536 1.833-.219 2.735l-.03-.032-4.858 4.857.825.825 4.52-4.518 1.671 3.907 1.002 3.078-2.478 1.4.574 1.014 3.308-1.874-1.11-3.409 3.332-.816 2.19.757v3.715h1.167v-4.55l-2.774-.96-.359-4.836zm-3.966 5.6l-1.867-4.37c-.259-.605-.239-1.293.055-1.88.294-.589.832-1.017 1.471-1.173l.381-.093c.174-.042.352-.064.531-.064 1.17.002 2.14.905 2.229 2.072l.35 4.739-3.15.768zM5.514 5.027c.086.357.311.665.625.856.314.19.69.249 1.048.162l1.418-.35c.357-.087.665-.312.856-.626.19-.314.249-.69.162-1.048l-.68-2.788C8.79.613 8.237.177 7.598.175c-.11.001-.22.015-.329.04l-1.42.35c-.742.183-1.197.932-1.016 1.675l.68 2.787zM6.127 1.7l1.418-.35c.017-.005.035-.007.053-.006.1.001.187.07.21.167l.682 2.788c.014.056.004.115-.026.165s-.078.086-.135.099l-1.471.35c-.1-.001-.188-.07-.212-.167l-.68-2.788c-.024-.116.047-.23.161-.258z" transform="translate(.669 .868)"/>
    </g>
</svg>
